<?xml version="1.0" encoding="utf-8"?>
<!-- Generator: Adobe Illustrator 27.0.0, SVG Export Plug-In . SVG Version: 6.00 Build 0)  -->
<svg version="1.1" id="Layer_1" xmlns="http://www.w3.org/2000/svg" xmlns:xlink="http://www.w3.org/1999/xlink" x="0px" y="0px"
	 viewBox="0 0 571.3 515" style="enable-background:new 0 0 571.3 515;" xml:space="preserve">
<style type="text/css">
	.st0{clip-path:url(#SVGID_00000006669025786983650880000005007857019208171912_);}
	.st1{fill:none;}
	.st2{fill:none;stroke:url(#SVGID_00000149371622517357678380000018011421120441455008_);stroke-width:5;}
	.st3{fill:none;stroke:url(#SVGID_00000179647554304067497770000003935655160398350516_);stroke-width:5;}
	.st4{fill:none;stroke:url(#SVGID_00000061438393464406451470000005426517516229898671_);stroke-width:5;}
	.st5{fill:#00FFFF;}
	.st6{fill:none;stroke:#FFFFFF;}
	.st7{fill:#FFA500;}
	.st8{fill:#8A2BE2;}
	.st9{fill:#FFD700;}
	.st10{clip-path:url(#SVGID_00000097484754756077096490000013539530879500212656_);}
	.st11{fill:#FFFFFF;}
	.st12{fill:#00FF00;}
	.st13{clip-path:url(#SVGID_00000072971213894729891150000001125293462555013009_);}
</style>
<g>
	<defs>
		<rect id="SVGID_1_" y="0" width="571.3" height="515"/>
	</defs>
	<clipPath id="SVGID_00000101065912104921403970000002842437617271682237_">
		<use xlink:href="#SVGID_1_"  style="overflow:visible;"/>
	</clipPath>
	<g style="clip-path:url(#SVGID_00000101065912104921403970000002842437617271682237_);">
		<rect x="192.7" y="49" class="st1" width="203" height="415"/>
		<g>
			
				<linearGradient id="SVGID_00000063596599133861259720000017308778013446956440_" gradientUnits="userSpaceOnUse" x1="-393.1396" y1="-32.5253" x2="750.2584" y2="448.4087" gradientTransform="matrix(1 0 0 -1 0 515.8898)">
				<stop  offset="0" style="stop-color:#00FF00"/>
				<stop  offset="1" style="stop-color:#00FFFF"/>
			</linearGradient>
			
				<circle shape-rendering="crispEdges" style="fill:none;stroke:url(#SVGID_00000063596599133861259720000017308778013446956440_);stroke-width:5;" cx="290.8" cy="260.7" r="250.4"/>
		</g>
		<g>
			
				<linearGradient id="SVGID_00000129175026905039036620000010998432602808958858_" gradientUnits="userSpaceOnUse" x1="-393.1396" y1="-32.5253" x2="750.2584" y2="448.4087" gradientTransform="matrix(1 0 0 -1 0 515.8898)">
				<stop  offset="0" style="stop-color:#00FF00"/>
				<stop  offset="1" style="stop-color:#00FFFF"/>
			</linearGradient>
			
				<circle shape-rendering="crispEdges" style="fill:none;stroke:url(#SVGID_00000129175026905039036620000010998432602808958858_);stroke-width:5;" cx="290.8" cy="260.7" r="250.4"/>
		</g>
		<g>
			
				<linearGradient id="SVGID_00000083789078876190562780000016324495443183215764_" gradientUnits="userSpaceOnUse" x1="-392.2297" y1="-30.4927" x2="748.5853" y2="447.4393" gradientTransform="matrix(1 0 0 -1 0 515.8898)">
				<stop  offset="0" style="stop-color:#00FF00"/>
				<stop  offset="1" style="stop-color:#00FFFF"/>
			</linearGradient>
			
				<ellipse shape-rendering="crispEdges" style="fill:none;stroke:url(#SVGID_00000083789078876190562780000016324495443183215764_);stroke-width:5;" cx="290.2" cy="260.5" rx="249.5" ry="250.5"/>
		</g>
		<g>
			<path class="st5" d="M78.6,84L78.6,84c19.3,0,34.9,15.6,34.9,34.9v0c0,19.3-15.6,34.9-34.9,34.9h0c-19.3,0-34.9-15.6-34.9-34.9v0
				C43.7,99.6,59.3,84,78.6,84z"/>
			<path class="st6" d="M78.6,83.5L78.6,83.5c19.6,0,35.4,15.9,35.4,35.4v0c0,19.6-15.9,35.4-35.4,35.4h0
				c-19.6,0-35.4-15.9-35.4-35.4v0C43.2,99.4,59,83.5,78.6,83.5z"/>
		</g>
		<path d="M71.5,121.7c0.4,0.1,0.8,0.1,1.2,0.2c1,0,2-0.3,2.8-0.9l4.1,3.6c-0.3,0.6-0.5,1.3-0.6,2c0,0.7,0.1,1.4,0.3,2
			c0.3,0.7,0.7,1.4,1.2,1.9c0.6,0.5,1.2,1,2,1.2c0.7,0.2,1.5,0.3,2.3,0.2c0.8-0.1,1.5-0.4,2.1-0.8c0.6-0.4,1.2-1,1.6-1.7
			c0.4-0.7,0.6-1.4,0.6-2.2c0-0.8-0.1-1.5-0.4-2.3c-0.3-0.7-0.8-1.3-1.4-1.8l3.2-6.4c0.6,0.1,1.3,0.2,1.9,0c0.6-0.1,1.2-0.4,1.8-0.7
			c0.9-0.6,1.6-1.4,2-2.4c0.4-1,0.5-2.1,0.3-3.1c-0.2-1-0.8-2-1.6-2.7c-0.8-0.7-1.8-1.1-2.9-1.2c-1.1-0.1-2.1,0.2-3,0.7
			c-0.9,0.6-1.6,1.4-2,2.4c-0.4,1-0.5,2.1-0.3,3.1c0.2,1,0.8,2,1.6,2.7l-3.2,6.4c-0.3-0.1-0.7-0.1-1.1-0.1c-1,0-2,0.3-2.8,0.9
			l-4.1-3.6c0.3-0.6,0.5-1.3,0.6-2c0-0.7-0.1-1.4-0.3-2c-0.3-0.7-0.7-1.4-1.2-1.9c-0.5-0.5-1.2-1-1.9-1.2c-0.7-0.2-1.5-0.3-2.3-0.2
			s-1.5,0.4-2.1,0.8c-0.6,0.4-1.2,1-1.6,1.7c-0.4,0.7-0.6,1.4-0.7,2.2c-0.1,0.8,0.1,1.5,0.4,2.3c0.3,0.7,0.7,1.4,1.3,1.9l-5.4,10.2
			v-29h-2.5v32.8c0,0.7,0.3,1.3,0.7,1.8c0.5,0.5,1.1,0.7,1.8,0.7h32.8v-2.5h-32L71.5,121.7z M91.6,109.3c0.5,0,1,0.1,1.4,0.4
			c0.4,0.3,0.7,0.7,0.9,1.1c0.2,0.5,0.2,1,0.1,1.5c-0.1,0.5-0.3,0.9-0.7,1.3c-0.4,0.4-0.8,0.6-1.3,0.7c-0.5,0.1-1,0-1.5-0.1
			c-0.5-0.2-0.9-0.5-1.1-0.9c-0.3-0.4-0.4-0.9-0.4-1.4c0-0.7,0.3-1.3,0.7-1.8C90.3,109.5,91,109.3,91.6,109.3z M86.6,126.9
			c0,0.5-0.1,1-0.4,1.4c-0.3,0.4-0.7,0.7-1.1,0.9c-0.5,0.2-1,0.2-1.5,0.1c-0.5-0.1-0.9-0.3-1.3-0.7c-0.4-0.4-0.6-0.8-0.7-1.3
			c-0.1-0.5,0-1,0.1-1.5c0.2-0.5,0.5-0.9,0.9-1.1c0.4-0.3,0.9-0.4,1.4-0.4c0.7,0,1.3,0.3,1.8,0.7C86.3,125.6,86.6,126.3,86.6,126.9z
			 M72.7,114.3c0.5,0,1,0.1,1.4,0.4c0.4,0.3,0.7,0.7,0.9,1.1c0.2,0.5,0.2,1,0.1,1.5c-0.1,0.5-0.3,0.9-0.7,1.3
			c-0.4,0.4-0.8,0.6-1.3,0.7c-0.5,0.1-1,0-1.5-0.1c-0.5-0.2-0.9-0.5-1.1-0.9c-0.3-0.4-0.4-0.9-0.4-1.4c0-0.7,0.3-1.3,0.7-1.8
			C71.4,114.6,72,114.3,72.7,114.3z"/>
		<g>
			<path class="st7" d="M486.6,82L486.6,82c19.3,0,34.9,15.6,34.9,34.9v0c0,19.3-15.6,34.9-34.9,34.9h0c-19.3,0-34.9-15.6-34.9-34.9
				v0C451.7,97.6,467.3,82,486.6,82z"/>
			<path class="st6" d="M486.6,81.5L486.6,81.5c19.6,0,35.4,15.9,35.4,35.4v0c0,19.6-15.9,35.4-35.4,35.4h0
				c-19.6,0-35.4-15.9-35.4-35.4v0C451.2,97.4,467,81.5,486.6,81.5z"/>
		</g>
		<g>
			<path class="st8" d="M533.7,223L533.7,223c19.3,0,34.9,15.6,34.9,34.9v0c0,19.3-15.6,34.9-34.9,34.9h0
				c-19.3,0-34.9-15.6-34.9-34.9v0C498.7,238.6,514.4,223,533.7,223z"/>
			<path class="st8" d="M533.7,222.5L533.7,222.5c19.6,0,35.4,15.9,35.4,35.4v0c0,19.6-15.9,35.4-35.4,35.4h0
				c-19.6,0-35.4-15.9-35.4-35.4v0C498.2,238.4,514.1,222.5,533.7,222.5z"/>
		</g>
		<g>
			<path class="st9" d="M39.9,223L39.9,223c19.3,0,34.9,15.6,34.9,34.9v0c0,19.3-15.6,34.9-34.9,34.9h0C20.6,292.9,5,277.2,5,257.9
				v0C5,238.6,20.6,223,39.9,223z"/>
			<path class="st9" d="M39.9,222.5L39.9,222.5c19.6,0,35.4,15.9,35.4,35.4v0c0,19.6-15.9,35.4-35.4,35.4h0
				c-19.6,0-35.4-15.9-35.4-35.4v0C4.5,238.4,20.4,222.5,39.9,222.5z"/>
		</g>
		<g>
			<defs>
				<rect id="SVGID_00000036940623799971298200000013243214726160059791_" x="466.8" y="97.2" width="40.4" height="40.4"/>
			</defs>
			<clipPath id="SVGID_00000140717469005844815560000007160267638108255639_">
				<use xlink:href="#SVGID_00000036940623799971298200000013243214726160059791_"  style="overflow:visible;"/>
			</clipPath>
			<g style="clip-path:url(#SVGID_00000140717469005844815560000007160267638108255639_);">
				<path d="M475.5,137.3c-0.8,0-1.4-0.5-1.6-1.5c-1-3.6,2.2-14.1,5.1-15.1c1-0.4,2.4,0.1,4,0.5c1.4,0.4,2.8,0.8,4,0.8
					c1.1,0,2.5-0.4,3.7-0.8c1.8-0.5,3.3-1,4.3-0.6c3,1,6.1,11.5,5.1,15.1c-0.3,1.2-1.1,1.7-2.2,1.4c-1.4-0.3-2.8-0.9-4.3-1.6
					c-2.2-1-4.4-2-6.7-2.1c-2.3,0.1-4.5,1.1-6.7,2.1c-1.5,0.7-3,1.4-4.4,1.7C475.8,137.3,475.6,137.3,475.5,137.3z M479.8,121.5
					c-0.2,0-0.4,0-0.6,0.1c-2.4,0.8-5.6,10.6-4.6,14c0.3,0.9,0.7,0.9,1.1,0.8c1.3-0.3,2.7-0.9,4.2-1.6c2.3-1,4.6-2.1,7-2.2h0
					c2.5,0.1,4.9,1.2,7.1,2.2c1.5,0.7,2.9,1.3,4.1,1.6c0.4,0.1,0.8,0.1,1.1-0.8c1-3.4-2.2-13.2-4.6-14c-0.8-0.3-2.3,0.2-3.8,0.6
					c-1.3,0.4-2.7,0.8-4,0.8h0c-1.4,0-2.9-0.5-4.3-0.9C481.6,121.8,480.6,121.5,479.8,121.5z"/>
				<path d="M493,127.4c-0.7,0-1.3-0.6-1.3-1.3c0-0.7,0.6-1.3,1.3-1.3s1.3,0.6,1.3,1.3C494.3,126.8,493.7,127.4,493,127.4z
					 M493,125.6c-0.2,0-0.5,0.2-0.5,0.4c0,0.2,0.2,0.5,0.5,0.5c0.2,0,0.5-0.2,0.5-0.5C493.4,125.8,493.2,125.6,493,125.6z"/>
				<path d="M493,131.7c-0.7,0-1.3-0.6-1.3-1.3s0.6-1.3,1.3-1.3s1.3,0.6,1.3,1.3S493.7,131.7,493,131.7z M493,129.9
					c-0.2,0-0.5,0.2-0.5,0.4c0,0.2,0.2,0.5,0.5,0.5c0.2,0,0.5-0.2,0.5-0.5C493.4,130.1,493.2,129.9,493,129.9z"/>
				<path d="M490.8,129.6c-0.7,0-1.3-0.6-1.3-1.3c0-0.7,0.6-1.3,1.3-1.3s1.3,0.6,1.3,1.3C492.2,129,491.6,129.6,490.8,129.6z
					 M490.8,127.8c-0.2,0-0.4,0.2-0.4,0.4c0,0.2,0.2,0.5,0.4,0.5c0.2,0,0.5-0.2,0.5-0.5C491.3,128,491.1,127.8,490.8,127.8z"/>
				<path d="M495.1,129.6c-0.7,0-1.3-0.6-1.3-1.3c0-0.7,0.6-1.3,1.3-1.3c0.7,0,1.3,0.6,1.3,1.3C496.5,129,495.9,129.6,495.1,129.6z
					 M495.1,127.8c-0.2,0-0.5,0.2-0.5,0.4c0,0.2,0.2,0.5,0.5,0.5c0.2,0,0.4-0.2,0.4-0.5C495.6,128,495.4,127.8,495.1,127.8z"/>
				<path d="M482.5,131.7h-2.5c-0.2,0-0.4-0.2-0.4-0.4v-1.3h-1.3c-0.2,0-0.4-0.2-0.4-0.4V127c0-0.2,0.2-0.4,0.4-0.4h1.3v-1.3
					c0-0.2,0.2-0.4,0.4-0.4h2.5c0.2,0,0.4,0.2,0.4,0.4v1.3h1.3c0.2,0,0.4,0.2,0.4,0.4v2.5c0,0.2-0.2,0.4-0.4,0.4h-1.3v1.3
					C482.9,131.5,482.7,131.7,482.5,131.7z M480.4,130.8h1.6v-1.3c0-0.2,0.2-0.4,0.4-0.4h1.3v-1.6h-1.3c-0.2,0-0.4-0.2-0.4-0.4v-1.3
					h-1.6v1.3c0,0.2-0.2,0.4-0.4,0.4h-1.3v1.6h1.3c0.2,0,0.4,0.2,0.4,0.4V130.8z"/>
				<path d="M496.2,122.3l-0.4-0.8l2.1-1.2c1-0.6,1.6-1.7,1.6-2.8v-10.7c0-1.2-0.6-2.2-1.6-2.8l-9.2-5.3c-1-0.6-2.3-0.6-3.3,0
					l-9.2,5.3c-1,0.6-1.6,1.7-1.6,2.8v10.7c0,1.2,0.6,2.2,1.6,2.8l2.1,1.2l-0.4,0.8l-2.1-1.2c-1.3-0.7-2.1-2.1-2.1-3.6v-10.7
					c0-1.5,0.8-2.9,2.1-3.6l9.2-5.3c1.3-0.7,2.9-0.7,4.2,0l9.2,5.3c1.3,0.7,2.1,2.1,2.1,3.6v10.7c0,1.5-0.8,2.9-2.1,3.6L496.2,122.3
					z"/>
				<path d="M482.5,116.7c-0.1,0-0.3-0.1-0.4-0.2l-4.3-6.9v6.7c0,0.2-0.2,0.4-0.4,0.4s-0.4-0.2-0.4-0.4v-8.2c0-0.2,0.1-0.4,0.3-0.4
					c0.2-0.1,0.4,0,0.5,0.2l4.3,6.9v-6.7c0-0.2,0.2-0.4,0.4-0.4s0.4,0.2,0.4,0.4v8.2c0,0.2-0.1,0.4-0.3,0.4
					C482.6,116.7,482.6,116.7,482.5,116.7z"/>
				<path d="M485.7,116.7c-0.2,0-0.4-0.2-0.4-0.4v-8.2c0-0.2,0.2-0.4,0.4-0.4h3.6c0.2,0,0.4,0.2,0.4,0.4c0,0.2-0.2,0.4-0.4,0.4h-3.2
					v7.8C486.2,116.5,486,116.7,485.7,116.7z"/>
				<path d="M488.6,112.6h-2.9c-0.2,0-0.4-0.2-0.4-0.4s0.2-0.4,0.4-0.4h2.9c0.2,0,0.4,0.2,0.4,0.4S488.9,112.6,488.6,112.6z"/>
				<path d="M496.5,108.5h-4.7c-0.2,0-0.4-0.2-0.4-0.4c0-0.2,0.2-0.4,0.4-0.4h4.7c0.2,0,0.4,0.2,0.4,0.4
					C497,108.3,496.8,108.5,496.5,108.5z"/>
				<path d="M494.2,116.7c-0.2,0-0.4-0.2-0.4-0.4v-8.2c0-0.2,0.2-0.4,0.4-0.4c0.2,0,0.4,0.2,0.4,0.4v8.2
					C494.7,116.5,494.5,116.7,494.2,116.7z"/>
			</g>
		</g>
		<g>
			<path class="st11" d="M488.6,377L488.6,377c19.3,0,34.9,15.6,34.9,34.9v0c0,19.3-15.6,34.9-34.9,34.9h0
				c-19.3,0-34.9-15.6-34.9-34.9v0C453.7,392.6,469.3,377,488.6,377z"/>
			<path class="st6" d="M488.6,376.5L488.6,376.5c19.6,0,35.4,15.9,35.4,35.4v0c0,19.6-15.9,35.4-35.4,35.4h0
				c-19.6,0-35.4-15.9-35.4-35.4v0C453.2,392.4,469,376.5,488.6,376.5z"/>
		</g>
		<path d="M507.5,401.4c-0.2-0.2-0.4-0.3-0.6-0.4c-0.2-0.1-0.5-0.1-0.7-0.1h-1.3v-3.2c0-0.5-0.2-1-0.6-1.3c-0.4-0.4-0.8-0.6-1.3-0.6
			h-27.3c-1.5,0-2.9,0.6-3.9,1.6c-1,1-1.6,2.5-1.6,3.9V423c0,1.5,0.6,2.9,1.6,3.9c1,1,2.5,1.6,3.9,1.6h30.4c0.5,0,1-0.2,1.3-0.6
			c0.4-0.4,0.6-0.8,0.6-1.3l0.1-24c0-0.2,0-0.5-0.1-0.7C507.8,401.8,507.7,401.6,507.5,401.4z M505.4,426.1h-29.8
			c-0.8,0-1.6-0.3-2.2-0.9c-0.6-0.6-0.9-1.3-0.9-2.2v-21.7c0-0.8,0.3-1.6,0.9-2.2c0.6-0.6,1.3-0.9,2.2-0.9h26.6v2.5h-26.5v2.5h29.7
			L505.4,426.1z"/>
		<path d="M499.8,412.8h2.5v2.5h-2.5V412.8z"/>
		<g>
			<path class="st12" d="M84.6,377L84.6,377c19.3,0,34.9,15.6,34.9,34.9v0c0,19.3-15.6,34.9-34.9,34.9h0
				c-19.3,0-34.9-15.6-34.9-34.9v0C49.7,392.6,65.3,377,84.6,377z"/>
			<path class="st6" d="M84.6,376.5L84.6,376.5c19.6,0,35.4,15.9,35.4,35.4v0c0,19.6-15.9,35.4-35.4,35.4h0
				c-19.6,0-35.4-15.9-35.4-35.4v0C49.2,392.4,65,376.5,84.6,376.5z"/>
		</g>
		<path d="M84.9,411.6c3,0,5.4-2.5,5.4-5.5c0-3-2.5-5.4-5.5-5.4c-3,0-5.4,2.5-5.4,5.4C79.4,409.1,81.9,411.6,84.9,411.6z
			 M84.8,402.9C84.9,402.9,84.9,402.9,84.8,402.9c1.8,0,3.3,1.5,3.3,3.3c0,1.8-1.5,3.1-3.3,3.1c-1.8,0-3.1-1.5-3.1-3.1
			C81.7,404.4,83.1,402.9,84.8,402.9z"/>
		<path d="M101.5,410.9c-2.1-1.9-4.9-2.9-7.9-2.8h-0.9c-0.2,0.9-0.6,1.7-1,2.4c0.7-0.1,1.2-0.1,1.9-0.1c2.1-0.1,4.3,0.6,5.9,1.8v8.1
			h2.2v-9L101.5,410.9z"/>
		<path d="M91.1,400.9c0.6-1.3,2.1-2,3.6-1.5c1.3,0.6,2,2.1,1.5,3.6c-0.4,1-1.5,1.7-2.5,1.7c-0.2,0-0.6,0-0.8-0.1
			c0.1,0.6,0.1,1.1,0.1,1.6v0.7c0.2,0,0.4,0.1,0.7,0.1c2.8,0,5.1-2.2,5.1-4.9c0-2.8-2.2-5.1-4.9-5.1c-1.8,0-3.4,0.9-4.3,2.5
			C90.1,399.8,90.6,400.2,91.1,400.9z"/>
		<path d="M78.3,410.6c-0.4-0.7-0.8-1.5-1-2.4h-0.9c-2.9-0.1-5.7,0.9-7.9,2.7l-0.3,0.3v9h2.2v-8.1c1.8-1.2,3.8-1.9,5.9-1.8
			C77.1,410.3,77.7,410.4,78.3,410.6z"/>
		<path d="M76.4,406.9c0.2,0,0.4,0,0.7-0.1v-0.7c0-0.6,0-1.1,0.1-1.6c-0.2,0.1-0.6,0.1-0.8,0.1c-1.5,0-2.7-1.2-2.7-2.7
			c0-1.5,1.2-2.7,2.7-2.7c1.1,0,2.1,0.7,2.6,1.7c0.4-0.6,1.1-1.1,1.7-1.6c-1.5-2.4-4.5-3.1-6.8-1.7c-2.4,1.5-3.1,4.5-1.7,6.8
			C73,406,74.6,406.9,76.4,406.9z"/>
		<path d="M94.1,417.6l-0.2-0.3c-2.2-2.5-5.4-3.9-8.8-3.8c-3.4-0.1-6.6,1.3-8.9,3.8l-0.2,0.3v8.5c0,1,0.8,1.9,1.9,1.9h14.4
			c1,0,1.9-0.9,1.9-1.9v-8.5H94.1z M91.9,425.8H78.3v-7.4c1.8-1.8,4.3-2.7,6.8-2.7c2.5-0.1,4.9,0.9,6.7,2.7V425.8z"/>
		<g>
			<path class="st9" d="M-85.7,261.2L-85.7,261.2c19.3,0,34.9,15.6,34.9,34.9v0c0,19.3-15.6,34.9-34.9,34.9h0
				c-19.3,0-34.9-15.6-34.9-34.9v0C-120.7,276.9-105,261.2-85.7,261.2z"/>
			<path class="st6" d="M-85.7,260.7L-85.7,260.7c19.6,0,35.4,15.9,35.4,35.4v0c0,19.6-15.9,35.4-35.4,35.4h0
				c-19.6,0-35.4-15.9-35.4-35.4v0C-121.2,276.6-105.3,260.7-85.7,260.7z"/>
		</g>
		<g>
			<defs>
				<rect id="SVGID_00000098901346469202699920000013353323853486038674_" x="20.2" y="237.7" width="40.4" height="40.4"/>
			</defs>
			<clipPath id="SVGID_00000109023188504466643150000003226370340963316353_">
				<use xlink:href="#SVGID_00000098901346469202699920000013353323853486038674_"  style="overflow:visible;"/>
			</clipPath>
			<g style="clip-path:url(#SVGID_00000109023188504466643150000003226370340963316353_);">
				<path d="M29.8,269.5v3.3h15.9v-3.3H29.8z M30.1,263.6l-0.2,3.3l15.9,1.1l0.2-3.3L30.1,263.6z M25.2,262.2v15.9h25.2v-15.9h-2.6
					v13.3H27.8v-13.3H25.2z M31.3,256.6l-0.8,3.2l15.4,3.8l0.8-3.2L31.3,256.6z M34.7,248.6l-1.7,2.8l13.7,8.1l1.7-2.9L34.7,248.6z
					 M43.1,241l-2.7,1.8l8.9,13.2l2.7-1.8L43.1,241z M53.8,237.7l-3.3,0.4l1.9,15.8l3.3-0.4L53.8,237.7z"/>
			</g>
		</g>
		<rect x="515" y="237.2" class="st1" width="38.2" height="40.4"/>
	</g>
</g>
</svg>
