<?xml version="1.0" standalone="no"?>
<!DOCTYPE svg PUBLIC "-//W3C//DTD SVG 20010904//EN"
 "http://www.w3.org/TR/2001/REC-SVG-20010904/DTD/svg10.dtd">
<svg version="1.0" xmlns="http://www.w3.org/2000/svg"
 width="5262.000000pt" height="3543.000000pt" viewBox="0 0 5262.000000 3543.000000"
 preserveAspectRatio="xMidYMid meet">

<g transform="translate(0.000000,3543.000000) scale(0.100000,-0.100000)"
fill="#000000" stroke="none">
<path d="M25920 25390 c-154 -10 -513 -49 -520 -57 -3 -3 42 -1 100 3 120 9
583 9 710 1 699 -47 1337 -235 1845 -544 195 -118 395 -266 523 -388 30 -27
59 -53 66 -57 43 -24 386 -432 423 -503 8 -16 25 -41 37 -55 30 -34 138 -223
226 -397 39 -79 76 -143 81 -143 6 0 7 -4 4 -10 -3 -5 -1 -18 5 -27 9 -15 10
-14 4 6 -3 14 -2 21 3 18 5 -4 10 0 10 8 0 8 -4 12 -9 9 -4 -3 -8 -2 -8 3 1
11 30 49 30 38 0 -5 7 1 16 13 8 12 12 27 8 34 -4 7 -3 8 4 4 8 -4 12 0 12 12
0 19 45 72 61 72 5 0 5 7 2 17 -5 12 -3 14 7 8 10 -6 12 -4 7 8 -4 11 -1 17 8
17 18 0 31 20 17 29 -6 4 -5 11 4 19 8 7 14 9 14 5 0 -4 7 3 16 15 8 12 12 27
8 34 -4 7 -3 8 4 4 8 -4 12 0 12 12 0 19 45 72 61 72 5 0 5 7 2 17 -5 12 -3
14 7 8 10 -6 12 -4 7 8 -4 11 -1 17 8 17 18 0 31 20 17 29 -6 4 -5 11 4 19 8
7 14 9 14 5 0 -4 7 3 16 15 8 12 12 27 8 34 -4 6 -3 8 3 5 5 -3 17 10 28 29
14 26 23 33 40 30 19 -4 21 -1 17 22 -12 62 -245 373 -444 592 l-105 115 -199
102 c-727 370 -1436 576 -2274 658 -185 19 -748 27 -940 15z m3501 -2077 c7
-10 9 -15 5 -11 -5 4 -16 2 -25 -5 -14 -10 -14 -10 -4 4 7 9 10 19 6 22 -3 4
-4 7 -1 7 3 0 12 -8 19 -17z"/>
<path d="M23471 24720 c-29 -16 -60 -35 -68 -42 -8 -7 -21 -13 -29 -14 -21 -3
-244 -132 -399 -230 -992 -629 -1805 -1551 -2295 -2604 -293 -630 -468 -1253
-545 -1940 -31 -271 -44 -854 -26 -1145 19 -319 58 -610 108 -824 l18 -74 1
219 c0 161 5 246 17 319 78 445 270 851 597 1260 180 224 501 533 760 730 36
28 73 58 82 68 10 9 21 18 25 20 5 1 7 6 5 11 -1 4 3 15 10 24 8 9 8 13 2 9
-7 -4 -15 0 -18 9 -9 23 -7 31 3 15 11 -17 3 72 -10 113 -5 16 -9 45 -10 65 0
29 -2 32 -9 16 -6 -14 -9 5 -9 58 -1 54 -4 76 -12 71 -8 -4 -9 1 -4 15 3 12 2
70 -4 129 -35 353 -34 344 -20 353 9 6 10 12 4 17 -6 4 -11 30 -12 57 -2 39 0
45 8 30 8 -17 9 -16 4 6 -9 50 104 346 236 617 49 100 89 187 89 192 0 6 3 10
8 10 11 0 34 58 27 70 -3 5 0 7 8 4 9 -3 18 9 27 38 8 24 18 48 22 55 6 7 3
15 -8 21 -16 9 -16 12 2 56 13 31 25 46 38 46 15 0 16 3 6 15 -7 8 -10 21 -7
29 3 8 1 16 -4 18 -6 2 -1 21 10 43 38 78 51 115 40 115 -6 0 -1 16 11 35 12
19 19 39 16 44 -4 5 2 24 13 43 10 18 24 49 30 70 7 20 18 39 26 42 8 3 11 13
8 25 -3 12 -1 21 4 21 5 0 17 27 27 60 11 36 24 60 32 60 9 0 14 11 14 29 0
16 6 36 13 43 7 7 19 29 27 48 8 19 20 41 27 48 7 7 13 22 13 32 0 10 6 25 13
32 7 7 19 29 27 48 8 19 19 40 25 47 27 32 33 41 55 90 13 29 27 50 31 48 4
-3 22 25 40 61 19 37 39 69 46 71 7 3 13 11 13 19 0 8 5 14 10 14 6 0 17 18
26 40 9 22 25 45 35 50 10 6 23 26 30 45 7 19 18 35 24 35 5 0 19 12 30 26 11
14 28 34 38 45 9 10 17 22 17 27 1 4 19 25 40 47 22 22 40 45 40 52 0 7 5 13
10 13 6 0 10 7 10 15 0 8 6 15 14 15 8 0 17 8 20 18 3 10 20 26 36 36 17 9 28
21 25 26 -3 4 44 58 105 119 78 79 108 117 104 129 -5 14 -4 15 5 2 10 -14 16
-7 12 13 -1 5 3 6 9 2 6 -3 8 -10 6 -14 -3 -4 1 -8 9 -8 8 0 11 5 8 10 -4 7 1
8 13 3 15 -5 16 -4 7 5 -6 6 -9 18 -6 27 5 11 3 13 -7 7 -9 -6 -11 -4 -6 4 5
7 10 10 14 7 3 -3 11 2 19 12 13 15 13 15 3 -6 -8 -16 -8 -27 0 -40 10 -15 11
-14 7 5 -3 12 1 30 9 41 7 11 10 22 6 26 -3 4 1 4 11 0 9 -3 14 -11 10 -18 -3
-6 15 9 41 34 25 25 50 44 54 44 4 -1 16 7 26 17 26 25 21 24 -43 -11z"/>
<path d="M23530 24719 c0 -5 5 -7 10 -4 6 3 10 8 10 11 0 2 -4 4 -10 4 -5 0
-10 -5 -10 -11z"/>
<path d="M31399 22721 c8 -5 12 -19 9 -34 -3 -17 0 -28 9 -31 8 -4 11 -11 7
-18 -6 -10 -5 -11 8 -1 8 7 18 9 23 5 4 -4 6 0 3 8 -3 8 -12 15 -20 14 -8 -1
-15 5 -15 12 0 7 5 11 10 7 5 -3 1 6 -8 21 -10 14 -22 26 -29 26 -6 0 -5 -4 3
-9z"/>
<path d="M31440 22625 c0 -6 6 -17 13 -24 10 -11 10 -13 0 -7 -9 5 -13 0 -13
-15 0 -19 2 -20 17 -8 15 13 15 12 5 -8 -7 -12 -8 -24 -3 -27 4 -3 11 -27 15
-53 3 -27 13 -60 21 -76 7 -15 17 -67 21 -115 4 -48 10 -89 14 -92 4 -3 10
-16 14 -30 6 -20 5 -22 -4 -10 -10 12 -11 12 -5 -5 24 -75 49 -289 47 -402 -1
-49 2 -83 8 -83 6 0 9 -116 10 -310 0 -176 -4 -310 -9 -310 -5 0 -7 -17 -5
-37 3 -21 -2 -78 -9 -128 -8 -49 -10 -91 -6 -93 5 -2 2 -19 -6 -39 -8 -19 -15
-47 -15 -62 0 -42 -31 -264 -40 -286 -13 -31 -23 -67 -25 -95 -4 -50 -18 -105
-31 -125 -8 -11 -14 -36 -14 -55 0 -20 -4 -40 -9 -46 -4 -5 -13 -30 -20 -56
-6 -27 -16 -69 -22 -95 -7 -27 -16 -52 -20 -57 -5 -6 -9 -22 -9 -37 0 -15 -4
-31 -10 -34 -5 -3 -19 -37 -30 -75 -11 -38 -25 -72 -30 -75 -6 -3 -10 -20 -10
-36 0 -17 -4 -28 -9 -25 -5 3 -11 -8 -15 -24 -3 -17 -17 -56 -32 -88 -14 -31
-37 -80 -49 -107 -13 -28 -27 -63 -30 -78 -4 -15 -11 -27 -16 -27 -5 0 -9 -6
-9 -13 0 -19 -26 -72 -71 -142 -21 -33 -41 -72 -44 -87 -4 -14 -15 -35 -26
-47 -10 -11 -19 -25 -19 -31 0 -6 -9 -20 -20 -32 -11 -12 -20 -32 -20 -44 0
-12 -11 -32 -25 -45 -15 -13 -39 -49 -55 -79 -16 -30 -40 -66 -55 -79 -14 -13
-25 -31 -25 -41 0 -10 -11 -28 -25 -41 -14 -13 -35 -42 -47 -64 -11 -22 -36
-55 -54 -73 -19 -19 -34 -38 -34 -43 0 -5 -13 -21 -29 -36 -15 -16 -35 -41
-44 -58 -33 -61 -35 -62 -57 -35 -15 18 -18 20 -13 6 4 -13 3 -17 -5 -12 -8 5
-10 2 -5 -9 5 -13 7 -14 14 -3 6 9 9 7 9 -9 0 -25 -24 -32 -34 -10 -3 6 -4 3
-1 -9 4 -13 -3 -30 -19 -47 -14 -15 -23 -27 -21 -27 3 0 -4 -9 -15 -20 -12
-12 -18 -25 -15 -30 4 -6 2 -10 -3 -10 -11 0 -35 -60 -24 -60 4 0 2 -4 -4 -8
-6 -4 -35 -54 -64 -112 -165 -330 -378 -652 -626 -945 -121 -142 -386 -408
-504 -505 -41 -34 -85 -71 -98 -81 -12 -10 -26 -19 -31 -19 -5 0 -11 -7 -15
-15 -6 -17 -26 -20 -26 -4 0 5 5 7 12 3 7 -4 8 -3 4 5 -9 14 -26 5 -26 -15 0
-8 -4 -15 -10 -15 -13 -2 -21 -4 -40 -12 -24 -9 -94 -31 -108 -33 -8 -1 -21
-6 -30 -10 -9 -4 -24 -8 -32 -9 -56 -9 -216 -57 -285 -86 -29 -12 -138 -43
-152 -44 -6 0 -15 -4 -19 -8 -11 -11 -46 -8 -39 3 4 6 -5 8 -22 5 -85 -15
-298 -41 -351 -43 -18 -1 -31 -6 -28 -11 4 -5 -4 -7 -16 -3 -14 3 -19 2 -14
-6 5 -8 -2 -12 -21 -13 -24 0 -25 -1 -8 -9 15 -6 8 -8 -25 -8 -63 0 -360 -19
-508 -32 -88 -8 -165 -9 -271 -1 -82 5 -159 7 -171 4 -18 -5 -21 -3 -15 7 6
10 4 12 -7 7 -11 -4 -5 14 19 56 86 153 222 323 392 492 61 60 111 114 111
118 0 5 -9 7 -21 4 -12 -3 -18 -3 -15 0 10 10 -15 33 -35 33 -11 0 -19 4 -19
8 0 5 -22 19 -50 32 -27 13 -58 30 -67 39 -10 9 -34 24 -53 33 -19 10 -54 29
-77 42 -22 14 -44 22 -48 18 -4 -4 -5 -1 -3 7 7 32 -35 17 -74 -25 -218 -237
-378 -531 -436 -804 -19 -87 -38 -225 -34 -242 1 -3 -6 -5 -16 -3 -9 1 -21 0
-25 -2 -8 -5 -51 -8 -297 -18 -141 -6 -435 5 -540 21 -63 9 -80 13 -91 20 -8
4 -9 3 -5 -4 4 -7 3 -12 -3 -12 -5 0 -14 7 -19 16 -7 12 -10 13 -19 2 -18 -23
-64 -161 -56 -168 13 -12 217 -58 353 -79 193 -31 318 -42 540 -46 l205 -4 22
-83 c90 -348 290 -666 638 -1014 307 -307 622 -474 1021 -540 203 -34 598 -22
784 23 23 6 24 5 11 -11 -8 -9 -11 -19 -7 -23 3 -3 6 0 7 8 1 19 30 -81 30
-103 0 -10 4 -18 9 -18 5 0 12 -23 16 -50 4 -28 11 -53 15 -56 5 -3 7 -10 4
-15 -4 -5 -2 -9 3 -9 5 0 9 -15 9 -32 -1 -29 2 -33 23 -31 14 2 88 35 165 74
1020 520 1916 1365 2513 2371 425 716 703 1535 806 2378 80 649 50 1351 -85
2010 -132 642 -369 1267 -697 1835 -122 212 -220 362 -237 362 -8 0 -15 -5
-15 -12z m-3577 -6572 c-7 -2 -19 -2 -25 0 -7 3 -2 5 12 5 14 0 19 -2 13 -5z"/>
<path d="M29416 20750 c-58 -132 -140 -276 -226 -396 -93 -129 -274 -307 -390
-382 -121 -78 -132 -89 -117 -112 6 -10 15 -16 19 -14 4 3 8 0 8 -5 0 -6 -4
-11 -9 -11 -6 0 -4 -21 4 -47 32 -109 68 -420 59 -515 -5 -68 -4 -79 11 -84
12 -5 13 -9 5 -14 -7 -4 -11 -13 -9 -19 5 -13 92 38 184 108 79 60 199 180
259 261 27 36 53 69 57 74 4 5 8 -9 8 -30 0 -22 5 -100 12 -174 6 -74 8 -205
5 -291 -3 -113 -1 -160 7 -168 9 -9 7 -11 -8 -6 -14 5 -16 4 -7 -2 7 -6 10
-17 6 -29 -17 -46 225 248 337 411 42 61 108 163 146 227 l70 116 -13 89 c-49
307 -134 609 -249 878 -47 108 -112 245 -118 245 -2 0 -25 -49 -51 -110z"/>
<path d="M23405 20790 c-135 -35 -401 -114 -466 -138 -28 -11 -58 -75 -124
-262 -33 -94 -105 -342 -105 -361 0 -4 35 6 78 23 42 17 174 63 292 102 176
58 216 75 218 91 2 11 8 22 13 23 5 2 9 10 9 18 0 9 -4 12 -10 9 -5 -3 -10 -1
-10 4 0 6 5 11 11 11 15 0 38 30 39 50 0 8 14 40 30 70 16 30 37 70 46 88 10
17 21 32 26 32 4 0 8 9 8 19 0 23 118 211 132 211 5 0 6 5 3 10 -3 6 -2 10 3
10 5 0 9 7 9 15 0 22 -34 18 -202 -25z"/>
<path d="M22054 19243 c-234 -176 -555 -568 -749 -913 -291 -518 -421 -1097
-369 -1634 l6 -59 -26 5 c-14 3 -23 2 -21 -3 6 -9 -18 -17 -65 -20 -19 -2 -40
-7 -47 -12 -7 -5 -25 -7 -40 -6 -16 2 -38 -3 -50 -11 -21 -15 -20 -17 72 -200
211 -422 451 -787 787 -1199 138 -169 513 -545 713 -715 608 -518 1285 -902
2049 -1162 982 -334 2055 -416 3079 -234 93 17 183 32 201 35 62 7 530 134
523 141 -2 2 -53 -3 -113 -12 -146 -21 -458 -21 -629 0 -520 65 -983 230
-1377 493 l-128 84 -122 -36 c-192 -56 -176 -57 -262 20 -265 238 -472 601
-545 955 -61 293 -52 613 25 960 33 144 110 385 170 527 25 59 48 115 51 124
6 22 -66 59 -117 59 -21 0 -51 5 -67 12 -15 6 -37 13 -48 15 -23 4 -61 18
-125 46 -24 11 -61 22 -81 24 -29 4 -36 9 -32 21 5 12 1 14 -15 10 -12 -4 -22
-2 -22 3 0 5 -5 9 -11 9 -5 0 -7 -6 -4 -12 4 -7 -1 -4 -9 6 -9 11 -16 16 -16
10 0 -5 -7 -1 -15 9 -9 13 -20 17 -34 12 -15 -4 -21 -2 -21 9 0 10 -6 13 -15
10 -8 -4 -15 -1 -15 6 0 7 -7 10 -15 7 -8 -4 -22 4 -34 18 -10 14 -26 25 -34
25 -8 0 -28 6 -44 13 -28 12 -42 22 -84 60 -10 9 -19 13 -19 7 0 -5 -11 1 -24
13 -13 12 -41 31 -63 42 -60 31 -138 79 -141 88 -2 4 -12 7 -23 7 -10 0 -19 4
-19 8 0 10 -166 122 -180 122 -5 0 -24 14 -42 30 -18 17 -38 30 -45 30 -7 0
-13 7 -13 15 0 8 -7 15 -16 15 -9 0 -34 16 -57 35 -22 19 -48 35 -58 35 -20 0
-42 24 -31 35 4 5 2 5 -4 2 -7 -4 -23 2 -36 13 -14 11 -29 16 -32 12 -4 -4 -7
-2 -6 3 5 23 -1 35 -17 35 -10 0 -37 18 -60 40 -24 21 -43 37 -43 34 0 -3 -6
1 -14 8 -8 7 -12 16 -9 21 2 4 0 7 -4 7 -5 0 -26 16 -46 35 -20 19 -37 33 -37
31 0 -3 -13 9 -30 26 -16 16 -30 34 -30 39 0 5 -3 9 -7 9 -8 0 -18 10 -114
110 -24 25 -82 93 -129 150 -46 58 -92 112 -102 121 -10 9 -18 19 -18 23 0 7
-55 79 -116 151 -14 17 -28 35 -32 40 -4 6 -23 30 -42 55 -43 55 -56 76 -75
117 -8 17 -19 34 -25 38 -6 3 -18 23 -28 43 -21 42 -61 112 -72 127 -18 25
-98 184 -110 219 -7 23 -15 34 -19 27 -5 -7 -13 5 -20 30 -7 22 -21 56 -32 75
-10 19 -19 41 -19 48 0 8 -8 17 -17 20 -13 6 -14 9 -4 15 10 6 9 11 -3 23 -8
9 -18 29 -22 44 -4 16 -10 34 -15 39 -4 6 -17 35 -29 65 -11 30 -27 69 -34 85
-8 17 -16 39 -18 49 -5 31 -21 29 -74 -11z"/>
<path d="M23356 17427 c3 -10 9 -15 12 -12 3 3 0 11 -7 18 -10 9 -11 8 -5 -6z"/>
<path d="M20673 16605 c0 -8 4 -12 9 -9 5 3 6 10 3 15 -9 13 -12 11 -12 -6z"/>
<path d="M28292 16161 c-10 -6 -9 -10 7 -14 14 -3 21 0 21 9 0 16 -9 18 -28 5z"/>
<path d="M27165 16020 l-30 -8 33 -1 c17 0 32 4 32 9 0 6 -1 9 -2 9 -2 -1 -16
-5 -33 -9z"/>
<path d="M28138 13263 c7 -3 16 -2 19 1 4 3 -2 6 -13 5 -11 0 -14 -3 -6 -6z"/>
<path d="M18705 11304 c-138 -32 -204 -65 -271 -135 -58 -62 -96 -137 -126
-247 -30 -108 -32 -423 -5 -522 55 -195 188 -315 392 -354 109 -21 402 -34
885 -41 224 -4 427 -11 454 -17 66 -14 106 -53 106 -103 0 -79 -48 -119 -163
-136 -34 -5 -419 -9 -856 -9 l-793 0 4 -112 c8 -187 50 -270 168 -332 36 -19
109 -46 163 -61 l97 -26 793 4 c881 4 868 3 1014 73 125 60 204 161 248 319
23 81 32 350 15 453 -40 250 -154 384 -374 438 -62 15 -64 16 -972 29 -397 6
-444 12 -484 63 -18 22 -21 37 -17 75 5 57 25 81 85 101 40 14 150 16 875 16
l830 0 -7 111 c-6 99 -11 117 -39 169 -64 115 -124 161 -282 218 l-70 25 -825
3 c-454 1 -834 1 -845 -2z"/>
<path d="M21060 10260 l0 -1050 360 0 360 0 0 545 c0 300 3 545 8 545 4 -1
120 -102 257 -226 l250 -225 350 4 c389 5 449 13 577 78 207 104 312 377 295
769 -14 338 -123 498 -389 570 -139 37 -219 40 -1155 40 l-913 0 0 -1050z
m1689 430 c130 -66 133 -205 8 -273 -41 -22 -48 -22 -509 -25 l-468 -3 0 161
0 160 465 0 c443 0 468 -1 504 -20z"/>
<path d="M23730 10260 l0 -1050 365 0 365 0 0 375 0 375 620 0 620 0 0 -375 0
-375 360 0 360 0 0 1050 0 1050 -360 0 -360 0 -2 -357 -3 -358 -617 -3 -618
-2 0 360 0 360 -365 0 -365 0 0 -1050z"/>
<path d="M26630 10260 l0 -1050 1150 0 1150 0 0 285 0 285 -790 0 -790 0 0
485 0 485 790 0 790 0 0 280 0 280 -1150 0 -1150 0 0 -1050z"/>
<path d="M29140 10260 l0 -1050 360 0 360 0 0 550 c0 303 3 550 6 550 3 0 280
-247 616 -550 l611 -550 418 0 419 0 -43 38 c-23 21 -184 160 -357 309 -173
149 -342 296 -375 326 -58 54 -59 56 -32 57 95 1 249 52 331 108 138 94 205
317 193 635 -13 357 -115 515 -377 586 -142 38 -218 41 -1187 41 l-943 0 0
-1050z m1755 434 c117 -61 114 -211 -5 -271 -44 -23 -46 -23 -537 -23 l-493 0
0 160 0 161 498 -3 c482 -3 498 -4 537 -24z"/>
<path d="M32040 10260 l0 -1050 1150 0 1150 0 0 285 0 285 -785 0 -785 0 0
485 0 485 785 0 785 0 0 280 0 280 -1150 0 -1150 0 0 -1050z"/>
<path d="M27590 10260 l0 -250 490 0 490 0 0 250 0 250 -490 0 -490 0 0 -250z"/>
<path d="M33000 10260 l0 -250 495 0 495 0 0 250 0 250 -495 0 -495 0 0 -250z"/>
</g>
</svg>
