<?xml version="1.0" encoding="UTF-8"?>
<!DOCTYPE svg PUBLIC "-//W3C//DTD SVG 1.1//EN" "http://www.w3.org/Graphics/SVG/1.1/DTD/svg11.dtd">
<svg xmlns="http://www.w3.org/2000/svg" version="1.1" width="91px" height="89px" style="shape-rendering:geometricPrecision; text-rendering:geometricPrecision; image-rendering:optimizeQuality; fill-rule:evenodd; clip-rule:evenodd" xmlns:xlink="http://www.w3.org/1999/xlink">
<g><path style="opacity:0.235" fill="#372e1e" d="M 41.5,9.5 C 45.3112,8.35472 49.3112,8.18806 53.5,9C 56.1909,9.15579 58.5242,9.98912 60.5,11.5C 59.8333,11.5 59.1667,11.5 58.5,11.5C 56.5648,10.8505 54.5648,10.5172 52.5,10.5C 49.272,9.58627 45.9387,9.25293 42.5,9.5C 42.1667,9.5 41.8333,9.5 41.5,9.5 Z"/></g>
<g><path style="opacity:0.416" fill="#423929" d="M 41.5,9.5 C 41.8333,9.5 42.1667,9.5 42.5,9.5C 42.5,9.83333 42.5,10.1667 42.5,10.5C 40.5853,10.2155 38.9187,10.5489 37.5,11.5C 36.8333,11.5 36.1667,11.5 35.5,11.5C 35.1667,11.5 34.8333,11.5 34.5,11.5C 36.4385,9.83724 38.7718,9.17057 41.5,9.5 Z"/></g>
<g><path style="opacity:0.937" fill="#aa9678" d="M 42.5,9.5 C 45.9387,9.25293 49.272,9.58627 52.5,10.5C 49.3752,11.4794 46.0419,11.8128 42.5,11.5C 42.5,11.1667 42.5,10.8333 42.5,10.5C 42.5,10.1667 42.5,9.83333 42.5,9.5 Z"/></g>
<g><path style="opacity:0.4" fill="#49412e" d="M 34.5,11.5 C 34.8333,11.5 35.1667,11.5 35.5,11.5C 34.5,12.1667 33.5,12.8333 32.5,13.5C 31.391,13.5569 30.391,13.8902 29.5,14.5C 29.5,14.1667 29.5,13.8333 29.5,13.5C 30.7804,12.0687 32.4471,11.4021 34.5,11.5 Z"/></g>
<g><path style="opacity:0.98" fill="#9d8e6b" d="M 37.5,11.5 C 38.9187,10.5489 40.5853,10.2155 42.5,10.5C 42.5,10.8333 42.5,11.1667 42.5,11.5C 42.5,11.8333 42.5,12.1667 42.5,12.5C 42.5,12.8333 42.5,13.1667 42.5,13.5C 42.1667,13.5 41.8333,13.5 41.5,13.5C 40.8166,11.8235 39.4832,11.1568 37.5,11.5 Z"/></g>
<g><path style="opacity:0.998" fill="#9e8972" d="M 52.5,10.5 C 54.5648,10.5172 56.5648,10.8505 58.5,11.5C 58.5,11.8333 58.5,12.1667 58.5,12.5C 57.8333,12.5 57.5,12.8333 57.5,13.5C 55.8828,12.962 54.2161,12.6287 52.5,12.5C 50.1667,12.5 47.8333,12.5 45.5,12.5C 44.5,12.5 43.5,12.5 42.5,12.5C 42.5,12.1667 42.5,11.8333 42.5,11.5C 46.0419,11.8128 49.3752,11.4794 52.5,10.5 Z"/></g>
<g><path style="opacity:0.357" fill="#433628" d="M 58.5,12.5 C 58.5,12.1667 58.5,11.8333 58.5,11.5C 59.1667,11.5 59.8333,11.5 60.5,11.5C 63.3263,11.9977 65.6597,13.3311 67.5,15.5C 65.5,14.8333 63.5,14.1667 61.5,13.5C 60.791,12.596 59.791,12.2627 58.5,12.5 Z"/></g>
<g><path style="opacity:1" fill="#ac9b82" d="M 35.5,11.5 C 36.1667,11.5 36.8333,11.5 37.5,11.5C 37.5,12.1667 37.5,12.8333 37.5,13.5C 36.8333,13.5 36.1667,13.5 35.5,13.5C 34.5,13.5 33.5,13.5 32.5,13.5C 33.5,12.8333 34.5,12.1667 35.5,11.5 Z"/></g>
<g><path style="opacity:1" fill="#b5a47e" d="M 37.5,11.5 C 39.4832,11.1568 40.8166,11.8235 41.5,13.5C 40.8333,13.5 40.1667,13.5 39.5,13.5C 38.8333,13.5 38.1667,13.5 37.5,13.5C 37.5,12.8333 37.5,12.1667 37.5,11.5 Z"/></g>
<g><path style="opacity:0.11" fill="#42301b" d="M 42.5,13.5 C 42.5,13.1667 42.5,12.8333 42.5,12.5C 43.5,12.5 44.5,12.5 45.5,12.5C 45.5,13.1667 45.5,13.8333 45.5,14.5C 44.8333,14.5 44.1667,14.5 43.5,14.5C 43.5,13.8333 43.1667,13.5 42.5,13.5 Z"/></g>
<g><path style="opacity:0.031" fill="#332018" d="M 45.5,12.5 C 47.8333,12.5 50.1667,12.5 52.5,12.5C 52.5,12.8333 52.5,13.1667 52.5,13.5C 50.4727,13.3379 48.4727,13.5045 46.5,14C 49.7392,15.7364 52.0726,18.2364 53.5,21.5C 53.1667,21.5 52.8333,21.5 52.5,21.5C 52.1667,20.5 51.5,19.8333 50.5,19.5C 50.5,18.8333 50.1667,18.5 49.5,18.5C 49.1583,17.6618 48.4916,17.3284 47.5,17.5C 47.1667,16.5 46.5,15.8333 45.5,15.5C 45.5,15.1667 45.5,14.8333 45.5,14.5C 45.5,13.8333 45.5,13.1667 45.5,12.5 Z"/></g>
<g><path style="opacity:0.992" fill="#a79279" d="M 57.5,13.5 C 57.5,12.8333 57.8333,12.5 58.5,12.5C 59.791,12.2627 60.791,12.596 61.5,13.5C 60.5084,13.3284 59.8417,13.6618 59.5,14.5C 59.1667,14.5 58.8333,14.5 58.5,14.5C 58.5,13.8333 58.1667,13.5 57.5,13.5 Z"/></g>
<g><path style="opacity:0.922" fill="#b19d89" d="M 32.5,13.5 C 33.5,13.5 34.5,13.5 35.5,13.5C 34.4863,14.6737 33.153,15.3404 31.5,15.5C 31.8333,14.8333 32.1667,14.1667 32.5,13.5 Z"/></g>
<g><path style="opacity:0.365" fill="#5c4637" d="M 35.5,13.5 C 36.1667,13.5 36.8333,13.5 37.5,13.5C 38.1667,13.5 38.8333,13.5 39.5,13.5C 39.8333,14.1667 40.1667,14.8333 40.5,15.5C 39.4168,15.4606 38.4168,15.1272 37.5,14.5C 35.2612,15.7878 32.9279,16.7878 30.5,17.5C 30.8333,16.8333 31.1667,16.1667 31.5,15.5C 33.153,15.3404 34.4863,14.6737 35.5,13.5 Z"/></g>
<g><path style="opacity:0.98" fill="#a69175" d="M 39.5,13.5 C 40.1667,13.5 40.8333,13.5 41.5,13.5C 41.8333,13.5 42.1667,13.5 42.5,13.5C 43.1667,13.5 43.5,13.8333 43.5,14.5C 42.5084,14.3284 41.8417,14.6618 41.5,15.5C 41.1667,15.5 40.8333,15.5 40.5,15.5C 40.1667,14.8333 39.8333,14.1667 39.5,13.5 Z"/></g>
<g><path style="opacity:0.298" fill="#594938" d="M 52.5,13.5 C 52.5,13.1667 52.5,12.8333 52.5,12.5C 54.2161,12.6287 55.8828,12.962 57.5,13.5C 58.1667,13.5 58.5,13.8333 58.5,14.5C 56.4352,14.4828 54.4352,14.1495 52.5,13.5 Z"/></g>
<g><path style="opacity:0.89" fill="#a38f75" d="M 59.5,14.5 C 59.8417,13.6618 60.5084,13.3284 61.5,13.5C 63.5,14.1667 65.5,14.8333 67.5,15.5C 67.8333,16.1667 68.1667,16.8333 68.5,17.5C 68.631,18.2389 68.4643,18.9056 68,19.5C 67.3292,18.7476 66.4959,18.4142 65.5,18.5C 65.0269,17.0937 64.0269,16.427 62.5,16.5C 62.0269,15.0937 61.0269,14.427 59.5,14.5 Z"/></g>
<g><path style="opacity:0.294" fill="#342c1b" d="M 29.5,13.5 C 29.5,13.8333 29.5,14.1667 29.5,14.5C 28.8333,14.5 28.5,14.8333 28.5,15.5C 27.8333,15.8333 27.1667,16.1667 26.5,16.5C 26.5,16.1667 26.5,15.8333 26.5,15.5C 26.9731,14.0937 27.9731,13.427 29.5,13.5 Z"/></g>
<g><path style="opacity:1" fill="#9f937d" d="M 32.5,13.5 C 32.1667,14.1667 31.8333,14.8333 31.5,15.5C 30.5,15.5 29.5,15.5 28.5,15.5C 28.5,14.8333 28.8333,14.5 29.5,14.5C 30.391,13.8902 31.391,13.5569 32.5,13.5 Z"/></g>
<g><path style="opacity:0.894" fill="#a3917a" d="M 41.5,15.5 C 41.8417,14.6618 42.5084,14.3284 43.5,14.5C 44.1667,14.5 44.8333,14.5 45.5,14.5C 45.5,14.8333 45.5,15.1667 45.5,15.5C 44.5084,15.3284 43.8417,15.6618 43.5,16.5C 42.8333,16.1667 42.1667,15.8333 41.5,15.5 Z"/></g>
<g><path style="opacity:0.718" fill="#685542" d="M 58.5,14.5 C 58.8333,14.5 59.1667,14.5 59.5,14.5C 61.0269,14.427 62.0269,15.0937 62.5,16.5C 60.847,16.3404 59.5137,15.6737 58.5,14.5 Z"/></g>
<g><path style="opacity:0.196" fill="#2b2315" d="M 26.5,15.5 C 26.5,15.8333 26.5,16.1667 26.5,16.5C 25.5,16.8333 24.8333,17.5 24.5,18.5C 23.5,18.8333 22.8333,19.5 22.5,20.5C 22.1667,20.5 21.8333,20.5 21.5,20.5C 22.1667,17.8333 23.8333,16.1667 26.5,15.5 Z"/></g>
<g><path style="opacity:0.953" fill="#9d8b72" d="M 28.5,15.5 C 29.5,15.5 30.5,15.5 31.5,15.5C 31.1667,16.1667 30.8333,16.8333 30.5,17.5C 30.5,18.1667 30.1667,18.5 29.5,18.5C 28.391,18.5569 27.391,18.8902 26.5,19.5C 26.1583,18.6618 25.4916,18.3284 24.5,18.5C 24.8333,17.5 25.5,16.8333 26.5,16.5C 27.1667,16.1667 27.8333,15.8333 28.5,15.5 Z"/></g>
<g><path style="opacity:0.078" fill="#3e3226" d="M 40.5,15.5 C 40.8333,15.5 41.1667,15.5 41.5,15.5C 42.1667,15.8333 42.8333,16.1667 43.5,16.5C 43.8333,17.1667 44.1667,17.8333 44.5,18.5C 42.5956,18.2624 41.2623,17.2624 40.5,15.5 Z"/></g>
<g><path style="opacity:0.98" fill="#a49072" d="M 45.5,15.5 C 46.5,15.8333 47.1667,16.5 47.5,17.5C 46.5084,17.3284 45.8417,17.6618 45.5,18.5C 45.1667,18.5 44.8333,18.5 44.5,18.5C 44.1667,17.8333 43.8333,17.1667 43.5,16.5C 43.8417,15.6618 44.5084,15.3284 45.5,15.5 Z"/></g>
<g><path style="opacity:0.208" fill="#3c2317" d="M 67.5,15.5 C 69.7488,16.0798 71.4154,17.4131 72.5,19.5C 72.1667,19.5 71.8333,19.5 71.5,19.5C 71.1667,19.5 70.8333,19.5 70.5,19.5C 70.1667,18.5 69.5,17.8333 68.5,17.5C 68.1667,16.8333 67.8333,16.1667 67.5,15.5 Z"/></g>
<g><path style="opacity:0.075" fill="#3f311e" d="M 62.5,16.5 C 64.0269,16.427 65.0269,17.0937 65.5,18.5C 63.9731,18.573 62.9731,17.9063 62.5,16.5 Z"/></g>
<g><path style="opacity:0.847" fill="#a18c77" d="M 45.5,18.5 C 45.8417,17.6618 46.5084,17.3284 47.5,17.5C 48.4916,17.3284 49.1583,17.6618 49.5,18.5C 48.5084,18.3284 47.8417,18.6618 47.5,19.5C 46.8333,19.1667 46.1667,18.8333 45.5,18.5 Z"/></g>
<g><path style="opacity:0.757" fill="#71604a" d="M 68.5,17.5 C 69.5,17.8333 70.1667,18.5 70.5,19.5C 69.596,20.209 69.2627,21.209 69.5,22.5C 67.8333,21.5 66.5,20.1667 65.5,18.5C 66.4959,18.4142 67.3292,18.7476 68,19.5C 68.4643,18.9056 68.631,18.2389 68.5,17.5 Z"/></g>
<g><path style="opacity:0.855" fill="#907f69" d="M 24.5,18.5 C 25.4916,18.3284 26.1583,18.6618 26.5,19.5C 26.5,19.8333 26.5,20.1667 26.5,20.5C 26.1667,21.5 25.5,22.1667 24.5,22.5C 24.5,21.1667 23.8333,20.5 22.5,20.5C 22.8333,19.5 23.5,18.8333 24.5,18.5 Z"/></g>
<g><path style="opacity:0.004" fill="#1f1916" d="M 29.5,18.5 C 29.0269,19.9063 28.0269,20.573 26.5,20.5C 26.5,20.1667 26.5,19.8333 26.5,19.5C 27.391,18.8902 28.391,18.5569 29.5,18.5 Z"/></g>
<g><path style="opacity:0.094" fill="#453626" d="M 44.5,18.5 C 44.8333,18.5 45.1667,18.5 45.5,18.5C 46.1667,18.8333 46.8333,19.1667 47.5,19.5C 47.8333,20.5 48.5,21.1667 49.5,21.5C 49.5,22.1667 49.8333,22.5 50.5,22.5C 51.1667,23.5 51.8333,24.5 52.5,25.5C 52.5,25.8333 52.5,26.1667 52.5,26.5C 52.1667,26.5 51.8333,26.5 51.5,26.5C 49.1667,23.8333 46.8333,21.1667 44.5,18.5 Z"/></g>
<g><path style="opacity:0.941" fill="#a5896f" d="M 49.5,18.5 C 50.1667,18.5 50.5,18.8333 50.5,19.5C 49.6618,19.8417 49.3284,20.5084 49.5,21.5C 48.5,21.1667 47.8333,20.5 47.5,19.5C 47.8417,18.6618 48.5084,18.3284 49.5,18.5 Z"/></g>
<g><path style="opacity:0.075" fill="#47463d" d="M 39.5,22.5 C 38.6618,22.8417 38.3284,23.5084 38.5,24.5C 37.8333,24.5 37.1667,24.5 36.5,24.5C 36.2308,22.5714 36.7308,20.9047 38,19.5C 39.0386,20.2438 39.5386,21.2438 39.5,22.5 Z"/></g>
<g><path style="opacity:0.888" fill="#9f8469" d="M 50.5,19.5 C 51.5,19.8333 52.1667,20.5 52.5,21.5C 51.5084,21.3284 50.8417,21.6618 50.5,22.5C 49.8333,22.5 49.5,22.1667 49.5,21.5C 49.3284,20.5084 49.6618,19.8417 50.5,19.5 Z"/></g>
<g><path style="opacity:0.796" fill="#958569" d="M 70.5,19.5 C 70.8333,19.5 71.1667,19.5 71.5,19.5C 71.8333,20.1667 72.1667,20.8333 72.5,21.5C 71.8333,21.5 71.5,21.8333 71.5,22.5C 70.8333,22.5 70.1667,22.5 69.5,22.5C 69.2627,21.209 69.596,20.209 70.5,19.5 Z"/></g>
<g><path style="opacity:0.369" fill="#3d311f" d="M 71.5,19.5 C 71.8333,19.5 72.1667,19.5 72.5,19.5C 75.3231,20.9923 76.9898,23.3257 77.5,26.5C 77.1667,26.5 76.8333,26.5 76.5,26.5C 75.8763,24.246 74.543,22.5794 72.5,21.5C 72.1667,20.8333 71.8333,20.1667 71.5,19.5 Z"/></g>
<g><path style="opacity:0.957" fill="#98866c" d="M 22.5,20.5 C 23.8333,20.5 24.5,21.1667 24.5,22.5C 24.5,23.1667 24.1667,23.5 23.5,23.5C 23.1667,23.5 22.8333,23.5 22.5,23.5C 22.5,22.8333 22.1667,22.5 21.5,22.5C 21.8333,21.8333 22.1667,21.1667 22.5,20.5 Z"/></g>
<g><path style="opacity:0.867" fill="#9a8668" d="M 52.5,21.5 C 52.8333,21.5 53.1667,21.5 53.5,21.5C 53.8333,22.5 54.5,23.1667 55.5,23.5C 55.5,24.1667 55.5,24.8333 55.5,25.5C 54.6043,24.4937 53.9377,24.4937 53.5,25.5C 53.1667,25.5 52.8333,25.5 52.5,25.5C 51.8333,24.5 51.1667,23.5 50.5,22.5C 50.8417,21.6618 51.5084,21.3284 52.5,21.5 Z"/></g>
<g><path style="opacity:0.184" fill="#292112" d="M 53.5,21.5 C 54.8333,21.5 55.5,22.1667 55.5,23.5C 54.5,23.1667 53.8333,22.5 53.5,21.5 Z"/></g>
<g><path style="opacity:0.859" fill="#8b725a" d="M 72.5,21.5 C 74.543,22.5794 75.8763,24.246 76.5,26.5C 76.1667,27.1667 75.8333,27.8333 75.5,28.5C 75.1667,28.5 74.8333,28.5 74.5,28.5C 73.0937,28.0269 72.427,27.0269 72.5,25.5C 72.4431,24.391 72.1098,23.391 71.5,22.5C 71.5,21.8333 71.8333,21.5 72.5,21.5 Z"/></g>
<g><path style="opacity:0.408" fill="#50432b" d="M 21.5,20.5 C 21.8333,20.5 22.1667,20.5 22.5,20.5C 22.1667,21.1667 21.8333,21.8333 21.5,22.5C 20.5,22.8333 19.8333,23.5 19.5,24.5C 19.1667,24.5 18.8333,24.5 18.5,24.5C 18.5,24.1667 18.5,23.8333 18.5,23.5C 19.1667,22.1667 20.1667,21.1667 21.5,20.5 Z"/></g>
<g><path style="opacity:1" fill="#b49e7a" d="M 21.5,22.5 C 22.1667,22.5 22.5,22.8333 22.5,23.5C 21.596,24.209 21.2627,25.209 21.5,26.5C 20.5,26.1667 19.8333,25.5 19.5,24.5C 19.8333,23.5 20.5,22.8333 21.5,22.5 Z"/></g>
<g><path style="opacity:0.243" fill="#453522" d="M 69.5,22.5 C 70.1667,22.5 70.8333,22.5 71.5,22.5C 72.1098,23.391 72.4431,24.391 72.5,25.5C 71.1667,24.8333 70.1667,23.8333 69.5,22.5 Z"/></g>
<g><path style="opacity:0.106" fill="#3c2c1f" d="M 22.5,23.5 C 22.8333,23.5 23.1667,23.5 23.5,23.5C 27.5667,25.0538 31.9,25.7204 36.5,25.5C 34.7354,26.4614 32.7354,26.7947 30.5,26.5C 29.5,26.5 28.5,26.5 27.5,26.5C 26.391,26.4431 25.391,26.1098 24.5,25.5C 23.1667,25.5 22.5,24.8333 22.5,23.5 Z"/></g>
<g><path style="opacity:0.082" fill="#2e251a" d="M 39.5,22.5 C 39.2852,24.1788 39.9519,25.1788 41.5,25.5C 40.791,26.404 39.791,26.7373 38.5,26.5C 38.5,25.8333 38.5,25.1667 38.5,24.5C 38.3284,23.5084 38.6618,22.8417 39.5,22.5 Z"/></g>
<g><path style="opacity:0.098" fill="#4b3921" d="M 55.5,23.5 C 57.7727,23.9568 59.106,25.2901 59.5,27.5C 58.8333,27.5 58.5,27.8333 58.5,28.5C 57.8333,27.8333 57.1667,27.1667 56.5,26.5C 56.5,25.8333 56.1667,25.5 55.5,25.5C 55.5,24.8333 55.5,24.1667 55.5,23.5 Z"/></g>
<g><path style="opacity:0.129" fill="#352f2a" d="M 18.5,23.5 C 18.5,23.8333 18.5,24.1667 18.5,24.5C 18.5569,25.609 18.8902,26.609 19.5,27.5C 18.4138,27.38 17.7472,26.7133 17.5,25.5C 17.5427,24.5836 17.8761,23.9169 18.5,23.5 Z"/></g>
<g><path style="opacity:0.62" fill="#6e5c43" d="M 36.5,24.5 C 37.1667,24.5 37.8333,24.5 38.5,24.5C 38.5,25.1667 38.5,25.8333 38.5,26.5C 38.5,26.8333 38.5,27.1667 38.5,27.5C 37.5,27.5 36.5,27.5 35.5,27.5C 33.5853,27.7845 31.9187,27.4511 30.5,26.5C 32.7354,26.7947 34.7354,26.4614 36.5,25.5C 36.5,25.1667 36.5,24.8333 36.5,24.5 Z"/></g>
<g><path style="opacity:0.933" fill="#ac8a6d" d="M 55.5,25.5 C 56.1667,25.5 56.5,25.8333 56.5,26.5C 56.5,27.1667 56.1667,27.5 55.5,27.5C 54.1667,27.5 53.5,26.8333 53.5,25.5C 53.9377,24.4937 54.6043,24.4937 55.5,25.5 Z"/></g>
<g><path style="opacity:0.918" fill="#867b61" d="M 18.5,24.5 C 18.8333,24.5 19.1667,24.5 19.5,24.5C 19.8333,25.5 20.5,26.1667 21.5,26.5C 22.391,27.1098 23.391,27.4431 24.5,27.5C 24.5,27.8333 24.5,28.1667 24.5,28.5C 23.8333,28.5 23.1667,28.5 22.5,28.5C 22.1667,28.5 21.8333,28.5 21.5,28.5C 21.1583,27.6618 20.4916,27.3284 19.5,27.5C 18.8902,26.609 18.5569,25.609 18.5,24.5 Z"/></g>
<g><path style="opacity:0.953" fill="#ac9675" d="M 22.5,23.5 C 22.5,24.8333 23.1667,25.5 24.5,25.5C 24.5,26.1667 24.5,26.8333 24.5,27.5C 23.391,27.4431 22.391,27.1098 21.5,26.5C 21.2627,25.209 21.596,24.209 22.5,23.5 Z"/></g>
<g><path style="opacity:0.404" fill="#553c2a" d="M 41.5,25.5 C 42.1667,25.8333 42.8333,26.1667 43.5,26.5C 43.5,26.8333 43.5,27.1667 43.5,27.5C 42.1667,27.5 40.8333,27.5 39.5,27.5C 39.1667,27.5 38.8333,27.5 38.5,27.5C 38.5,27.1667 38.5,26.8333 38.5,26.5C 39.791,26.7373 40.791,26.404 41.5,25.5 Z"/></g>
<g><path style="opacity:0.582" fill="#544639" d="M 51.5,26.5 C 51.8333,26.5 52.1667,26.5 52.5,26.5C 52.5,26.8333 52.5,27.1667 52.5,27.5C 49.5,27.5 46.5,27.5 43.5,27.5C 43.5,27.1667 43.5,26.8333 43.5,26.5C 46.2716,25.6285 48.9382,25.6285 51.5,26.5 Z"/></g>
<g><path style="opacity:0.945" fill="#ad9376" d="M 24.5,25.5 C 25.391,26.1098 26.391,26.4431 27.5,26.5C 27.8333,27.1667 28.1667,27.8333 28.5,28.5C 27.1667,28.5 25.8333,28.5 24.5,28.5C 24.5,28.1667 24.5,27.8333 24.5,27.5C 24.5,26.8333 24.5,26.1667 24.5,25.5 Z"/></g>
<g><path style="opacity:0.922" fill="#aa907a" d="M 27.5,26.5 C 28.5,26.5 29.5,26.5 30.5,26.5C 31.9187,27.4511 33.5853,27.7845 35.5,27.5C 35.5,28.1667 35.5,28.8333 35.5,29.5C 33.0504,29.702 30.717,29.3686 28.5,28.5C 28.1667,27.8333 27.8333,27.1667 27.5,26.5 Z"/></g>
<g><path style="opacity:0.612" fill="#765e50" d="M 52.5,25.5 C 52.8333,25.5 53.1667,25.5 53.5,25.5C 53.5,26.8333 54.1667,27.5 55.5,27.5C 55.5,27.8333 55.5,28.1667 55.5,28.5C 54.5,28.5 53.5,28.5 52.5,28.5C 52.5,28.1667 52.5,27.8333 52.5,27.5C 52.5,27.1667 52.5,26.8333 52.5,26.5C 52.5,26.1667 52.5,25.8333 52.5,25.5 Z"/></g>
<g><path style="opacity:0.953" fill="#9b846a" d="M 56.5,26.5 C 57.1667,27.1667 57.8333,27.8333 58.5,28.5C 58.8333,29.1667 59.1667,29.8333 59.5,30.5C 58.5,30.5 57.5,30.5 56.5,30.5C 56.1667,29.8333 55.8333,29.1667 55.5,28.5C 55.5,28.1667 55.5,27.8333 55.5,27.5C 56.1667,27.5 56.5,27.1667 56.5,26.5 Z"/></g>
<g><path style="opacity:0.112" fill="#352b1c" d="M 19.5,27.5 C 20.4916,27.3284 21.1583,27.6618 21.5,28.5C 21.5,28.8333 21.5,29.1667 21.5,29.5C 18.1667,29.5 14.8333,29.5 11.5,29.5C 9.71199,29.2148 8.04533,29.5481 6.5,30.5C 6.62358,31.1067 6.95691,31.44 7.5,31.5C 7.5,31.8333 7.5,32.1667 7.5,32.5C 5.82351,31.8166 5.15684,30.4832 5.5,28.5C 10.3633,28.8195 15.03,28.4861 19.5,27.5 Z"/></g>
<g><path style="opacity:1" fill="#aa8e6d" d="M 35.5,27.5 C 36.5,27.5 37.5,27.5 38.5,27.5C 38.8333,27.5 39.1667,27.5 39.5,27.5C 39.5,28.1667 39.5,28.8333 39.5,29.5C 39.1667,29.5 38.8333,29.5 38.5,29.5C 37.8333,29.5 37.1667,29.5 36.5,29.5C 36.1667,29.5 35.8333,29.5 35.5,29.5C 35.5,28.8333 35.5,28.1667 35.5,27.5 Z"/></g>
<g><path style="opacity:0.878" fill="#a08873" d="M 39.5,27.5 C 40.8333,27.5 42.1667,27.5 43.5,27.5C 43.5,28.1667 43.5,28.8333 43.5,29.5C 42.1667,29.5 40.8333,29.5 39.5,29.5C 39.5,28.8333 39.5,28.1667 39.5,27.5 Z"/></g>
<g><path style="opacity:0.859" fill="#988673" d="M 43.5,27.5 C 46.5,27.5 49.5,27.5 52.5,27.5C 52.5,27.8333 52.5,28.1667 52.5,28.5C 50.0971,28.448 47.7638,28.7814 45.5,29.5C 44.8333,29.5 44.1667,29.5 43.5,29.5C 43.5,28.8333 43.5,28.1667 43.5,27.5 Z"/></g>
<g><path style="opacity:0.349" fill="#3d2c21" d="M 52.5,28.5 C 53.5,28.5 54.5,28.5 55.5,28.5C 55.8333,29.1667 56.1667,29.8333 56.5,30.5C 56.5,30.8333 56.5,31.1667 56.5,31.5C 55.4062,30.4183 54.0729,29.7517 52.5,29.5C 50.2178,30.2234 47.8845,30.5567 45.5,30.5C 45.5,30.1667 45.5,29.8333 45.5,29.5C 47.7638,28.7814 50.0971,28.448 52.5,28.5 Z"/></g>
<g><path style="opacity:0.031" fill="#352913" d="M 59.5,27.5 C 60.7729,29.7128 61.7729,32.0462 62.5,34.5C 62.1667,34.5 61.8333,34.5 61.5,34.5C 60.8333,33.1667 60.1667,31.8333 59.5,30.5C 59.1667,29.8333 58.8333,29.1667 58.5,28.5C 58.5,27.8333 58.8333,27.5 59.5,27.5 Z"/></g>
<g><path style="opacity:0.532" fill="#80735f" d="M 11.5,29.5 C 10.1667,30.1667 8.83333,30.8333 7.5,31.5C 6.95691,31.44 6.62358,31.1067 6.5,30.5C 8.04533,29.5481 9.71199,29.2148 11.5,29.5 Z"/></g>
<g><path style="opacity:0.8" fill="#977f65" d="M 11.5,29.5 C 14.8333,29.5 18.1667,29.5 21.5,29.5C 21.8333,29.5 22.1667,29.5 22.5,29.5C 22.5,30.5 22.5,31.5 22.5,32.5C 21.8333,32.5 21.1667,32.5 20.5,32.5C 16.1667,32.5 11.8333,32.5 7.5,32.5C 7.5,32.1667 7.5,31.8333 7.5,31.5C 8.83333,30.8333 10.1667,30.1667 11.5,29.5 Z"/></g>
<g><path style="opacity:0.267" fill="#4a3d2b" d="M 22.5,29.5 C 22.5,29.1667 22.5,28.8333 22.5,28.5C 23.1667,28.5 23.8333,28.5 24.5,28.5C 25.8333,28.5 27.1667,28.5 28.5,28.5C 30.717,29.3686 33.0504,29.702 35.5,29.5C 35.8333,29.5 36.1667,29.5 36.5,29.5C 36.5,29.8333 36.5,30.1667 36.5,30.5C 36.1667,30.5 35.8333,30.5 35.5,30.5C 31.1434,30.4135 26.81,30.0802 22.5,29.5 Z"/></g>
<g><path style="opacity:0.643" fill="#4c3b2c" d="M 74.5,28.5 C 74.8333,28.5 75.1667,28.5 75.5,28.5C 75.9321,29.7095 76.5987,30.7095 77.5,31.5C 77.8333,33.5 78.1667,35.5 78.5,37.5C 78.5,37.8333 78.5,38.1667 78.5,38.5C 78.815,42.3714 78.4816,46.0381 77.5,49.5C 77.9817,42.2631 76.9817,35.2631 74.5,28.5 Z"/></g>
<g><path style="opacity:0.89" fill="#8e7b65" d="M 76.5,26.5 C 76.8333,26.5 77.1667,26.5 77.5,26.5C 77.8333,27.8333 78.1667,29.1667 78.5,30.5C 77.8333,30.5 77.5,30.8333 77.5,31.5C 76.5987,30.7095 75.9321,29.7095 75.5,28.5C 75.8333,27.8333 76.1667,27.1667 76.5,26.5 Z"/></g>
<g><path style="opacity:0.804" fill="#58452e" d="M 77.5,26.5 C 79.1042,27.287 79.7709,28.6203 79.5,30.5C 79.5,31.1667 79.5,31.8333 79.5,32.5C 78.6618,32.1583 78.3284,31.4916 78.5,30.5C 78.1667,29.1667 77.8333,27.8333 77.5,26.5 Z"/></g>
<g><path style="opacity:0.176" fill="#362516" d="M 7.5,32.5 C 11.8333,32.5 16.1667,32.5 20.5,32.5C 18.8333,33.1667 17.1667,33.8333 15.5,34.5C 15.1667,34.5 14.8333,34.5 14.5,34.5C 12.1667,33.8333 9.83333,33.1667 7.5,32.5 Z"/></g>
<g><path style="opacity:0.859" fill="#7d6853" d="M 56.5,30.5 C 57.5,30.5 58.5,30.5 59.5,30.5C 60.1667,31.8333 60.8333,33.1667 61.5,34.5C 59.3023,34.4088 58.9689,35.0755 60.5,36.5C 60.1667,36.5 59.8333,36.5 59.5,36.5C 58.1103,35.1007 57.1103,33.4341 56.5,31.5C 56.5,31.1667 56.5,30.8333 56.5,30.5 Z"/></g>
<g><path style="opacity:0.237" fill="#413422" d="M 20.5,32.5 C 21.1667,32.5 21.8333,32.5 22.5,32.5C 26.1667,33.1667 29.8333,33.8333 33.5,34.5C 31.8333,34.5 30.1667,34.5 28.5,34.5C 24.1667,34.5 19.8333,34.5 15.5,34.5C 17.1667,33.8333 18.8333,33.1667 20.5,32.5 Z"/></g>
<g><path style="opacity:0.541" fill="#706252" d="M 36.5,29.5 C 37.1667,29.5 37.8333,29.5 38.5,29.5C 38.5,31.1667 38.5,32.8333 38.5,34.5C 37.5233,37.2869 37.19,40.2869 37.5,43.5C 35.5,43.5 33.5,43.5 31.5,43.5C 31.5,43.1667 31.5,42.8333 31.5,42.5C 33.1667,42.5 34.8333,42.5 36.5,42.5C 36.5,38.5 36.5,34.5 36.5,30.5C 36.5,30.1667 36.5,29.8333 36.5,29.5 Z"/></g>
<g><path style="opacity:1" fill="#9b7b61" d="M 78.5,30.5 C 78.3284,31.4916 78.6618,32.1583 79.5,32.5C 79.5,32.8333 79.5,33.1667 79.5,33.5C 79.7678,35.099 79.4345,36.4324 78.5,37.5C 78.1667,35.5 77.8333,33.5 77.5,31.5C 77.5,30.8333 77.8333,30.5 78.5,30.5 Z"/></g>
<g><path style="opacity:0.816" fill="#8f7c68" d="M 13.5,34.5 C 13.8333,34.5 14.1667,34.5 14.5,34.5C 14.8333,34.5 15.1667,34.5 15.5,34.5C 19.8333,34.5 24.1667,34.5 28.5,34.5C 30.1667,35.1667 31.8333,35.8333 33.5,36.5C 26.4163,37.1255 19.7496,36.4589 13.5,34.5 Z"/></g>
<g><path style="opacity:0.685" fill="#7e6d5d" d="M 28.5,34.5 C 30.1667,34.5 31.8333,34.5 33.5,34.5C 34.1667,34.5 34.5,34.8333 34.5,35.5C 34.5,35.8333 34.5,36.1667 34.5,36.5C 34.1667,36.5 33.8333,36.5 33.5,36.5C 31.8333,35.8333 30.1667,35.1667 28.5,34.5 Z"/></g>
<g><path style="opacity:0.271" fill="#3f301f" d="M 79.5,30.5 C 81.0739,32.1016 81.7406,34.1016 81.5,36.5C 81.5,37.1667 81.5,37.8333 81.5,38.5C 80.8333,36.8333 80.1667,35.1667 79.5,33.5C 79.5,33.1667 79.5,32.8333 79.5,32.5C 79.5,31.8333 79.5,31.1667 79.5,30.5 Z"/></g>
<g><path style="opacity:0.278" fill="#443729" d="M 38.5,29.5 C 38.8333,29.5 39.1667,29.5 39.5,29.5C 40.8333,29.5 42.1667,29.5 43.5,29.5C 44.1667,29.5 44.8333,29.5 45.5,29.5C 45.5,29.8333 45.5,30.1667 45.5,30.5C 43.5,30.5 41.5,30.5 39.5,30.5C 39.5,33.5 39.5,36.5 39.5,39.5C 39.1667,39.5 38.8333,39.5 38.5,39.5C 38.5,37.8333 38.5,36.1667 38.5,34.5C 38.5,32.8333 38.5,31.1667 38.5,29.5 Z"/></g>
<g><path style="opacity:0.631" fill="#5b4d39" d="M 13.5,34.5 C 19.7496,36.4589 26.4163,37.1255 33.5,36.5C 33.8333,36.5 34.1667,36.5 34.5,36.5C 34.5,37.1667 34.1667,37.5 33.5,37.5C 26.8333,37.5 20.1667,37.5 13.5,37.5C 13.1667,37.5 12.8333,37.5 12.5,37.5C 12.2627,36.209 12.596,35.209 13.5,34.5 Z"/></g>
<g><path style="opacity:0.161" fill="#2f251a" d="M 35.5,30.5 C 35.8333,30.5 36.1667,30.5 36.5,30.5C 36.5,34.5 36.5,38.5 36.5,42.5C 34.8333,42.5 33.1667,42.5 31.5,42.5C 32.5676,41.5655 33.901,41.2322 35.5,41.5C 35.7845,39.5853 35.4511,37.9187 34.5,36.5C 34.5,36.1667 34.5,35.8333 34.5,35.5C 35.4511,34.0813 35.7845,32.4147 35.5,30.5 Z"/></g>
<g><path style="opacity:0.165" fill="#262012" d="M 13.5,38.5 C 13.5,38.1667 13.5,37.8333 13.5,37.5C 20.1667,37.5 26.8333,37.5 33.5,37.5C 28.8333,38.1667 24.1667,38.8333 19.5,39.5C 19.1667,39.5 18.8333,39.5 18.5,39.5C 17.0813,38.5489 15.4147,38.2155 13.5,38.5 Z"/></g>
<g><path style="opacity:0.937" fill="#937e64" d="M 61.5,34.5 C 61.8333,34.5 62.1667,34.5 62.5,34.5C 62.5,34.8333 62.5,35.1667 62.5,35.5C 63.1495,37.4352 63.4828,39.4352 63.5,41.5C 63.5,42.1667 63.1667,42.5 62.5,42.5C 62.6716,41.5084 62.3382,40.8417 61.5,40.5C 61.0825,39.7784 60.4158,39.2784 59.5,39C 60.2524,38.3292 60.5858,37.4959 60.5,36.5C 58.9689,35.0755 59.3023,34.4088 61.5,34.5 Z"/></g>
<g><path style="opacity:0.992" fill="#866f55" d="M 79.5,33.5 C 80.1667,35.1667 80.8333,36.8333 81.5,38.5C 81.7471,41.9387 81.4137,45.272 80.5,48.5C 79.8333,45.1667 79.1667,41.8333 78.5,38.5C 78.5,38.1667 78.5,37.8333 78.5,37.5C 79.4345,36.4324 79.7678,35.099 79.5,33.5 Z"/></g>
<g><path style="opacity:0.404" fill="#4f422f" d="M 59.5,36.5 C 59.8333,36.5 60.1667,36.5 60.5,36.5C 60.5858,37.4959 60.2524,38.3292 59.5,39C 60.4158,39.2784 61.0825,39.7784 61.5,40.5C 60.5,40.5 59.5,40.5 58.5,40.5C 57.1667,39.1667 55.8333,39.1667 54.5,40.5C 53.1667,40.5 51.8333,40.5 50.5,40.5C 50.5,40.1667 50.5,39.8333 50.5,39.5C 53.8539,39.2525 56.8539,38.2525 59.5,36.5 Z"/></g>
<g><path style="opacity:0.576" fill="#504131" d="M 62.5,35.5 C 65.0209,37.0304 66.0209,39.3637 65.5,42.5C 65.5,43.5 65.5,44.5 65.5,45.5C 65.1667,45.5 64.8333,45.5 64.5,45.5C 64.7678,43.901 64.4345,42.5676 63.5,41.5C 63.4828,39.4352 63.1495,37.4352 62.5,35.5 Z"/></g>
<g><path style="opacity:0.843" fill="#947f6a" d="M 15.5,39.5 C 16.5,39.5 17.5,39.5 18.5,39.5C 18.8333,39.5 19.1667,39.5 19.5,39.5C 19.5,40.1667 19.5,40.8333 19.5,41.5C 19.1667,41.5 18.8333,41.5 18.5,41.5C 17.5,40.8333 16.5,40.1667 15.5,39.5 Z"/></g>
<g><path style="opacity:0.773" fill="#817463" d="M 58.5,40.5 C 57.0413,40.4326 55.7079,40.7659 54.5,41.5C 54.5,41.1667 54.5,40.8333 54.5,40.5C 55.8333,39.1667 57.1667,39.1667 58.5,40.5 Z"/></g>
<g><path style="opacity:0.945" fill="#a39179" d="M 15.5,39.5 C 16.5,40.1667 17.5,40.8333 18.5,41.5C 15.7531,41.8134 13.0865,41.48 10.5,40.5C 12.0453,39.5481 13.712,39.2148 15.5,39.5 Z"/></g>
<g><path style="opacity:0.149" fill="#322416" d="M 39.5,39.5 C 41.0418,40.3007 42.7085,40.634 44.5,40.5C 44.5,40.8333 44.5,41.1667 44.5,41.5C 42.8333,41.5 41.1667,41.5 39.5,41.5C 39.5,40.8333 39.5,40.1667 39.5,39.5 Z"/></g>
<g><path style="opacity:0.365" fill="#352b1f" d="M 50.5,39.5 C 50.5,39.8333 50.5,40.1667 50.5,40.5C 48.901,40.2322 47.5676,40.5655 46.5,41.5C 45.8333,41.5 45.1667,41.5 44.5,41.5C 44.5,41.1667 44.5,40.8333 44.5,40.5C 46.3792,39.6586 48.3792,39.3253 50.5,39.5 Z"/></g>
<g><path style="opacity:0.796" fill="#867664" d="M 50.5,40.5 C 51.8333,40.5 53.1667,40.5 54.5,40.5C 54.5,40.8333 54.5,41.1667 54.5,41.5C 53.209,41.2627 52.209,41.596 51.5,42.5C 50.1667,42.5 48.8333,42.5 47.5,42.5C 46.8333,42.5 46.5,42.1667 46.5,41.5C 47.5676,40.5655 48.901,40.2322 50.5,40.5 Z"/></g>
<g><path style="opacity:0.224" fill="#453b2c" d="M 12.5,37.5 C 12.5,38.1667 12.8333,38.5 13.5,38.5C 15.4147,38.2155 17.0813,38.5489 18.5,39.5C 17.5,39.5 16.5,39.5 15.5,39.5C 13.712,39.2148 12.0453,39.5481 10.5,40.5C 13.0865,41.48 15.7531,41.8134 18.5,41.5C 18.8333,41.5 19.1667,41.5 19.5,41.5C 19.5,41.8333 19.5,42.1667 19.5,42.5C 19.1667,42.5 18.8333,42.5 18.5,42.5C 15.8333,42.5 13.1667,42.5 10.5,42.5C 7.86431,40.0791 8.53097,38.4124 12.5,37.5 Z"/></g>
<g><path style="opacity:0.71" fill="#836e5a" d="M 39.5,41.5 C 41.1667,41.5 42.8333,41.5 44.5,41.5C 45.1667,41.5 45.8333,41.5 46.5,41.5C 46.5,42.1667 46.8333,42.5 47.5,42.5C 47.1583,43.3382 46.4916,43.6716 45.5,43.5C 44.4324,42.5655 43.099,42.2322 41.5,42.5C 40.5084,42.6716 39.8417,42.3382 39.5,41.5 Z"/></g>
<g><path style="opacity:0.345" fill="#463128" d="M 58.5,40.5 C 58.5,40.8333 58.5,41.1667 58.5,41.5C 56.2278,42.3186 53.8945,42.9853 51.5,43.5C 51.5,43.1667 51.5,42.8333 51.5,42.5C 52.209,41.596 53.209,41.2627 54.5,41.5C 55.7079,40.7659 57.0413,40.4326 58.5,40.5 Z"/></g>
<g><path style="opacity:1" fill="#a2886e" d="M 38.5,34.5 C 38.5,36.1667 38.5,37.8333 38.5,39.5C 38.5,41.1667 38.5,42.8333 38.5,44.5C 37.5,44.5 36.5,44.5 35.5,44.5C 33.901,44.7678 32.5676,44.4345 31.5,43.5C 33.5,43.5 35.5,43.5 37.5,43.5C 37.19,40.2869 37.5233,37.2869 38.5,34.5 Z"/></g>
<g><path style="opacity:0.716" fill="#937e6b" d="M 41.5,42.5 C 43.099,42.2322 44.4324,42.5655 45.5,43.5C 44.209,43.2627 43.209,43.596 42.5,44.5C 42.1667,44.5 41.8333,44.5 41.5,44.5C 41.5,43.8333 41.5,43.1667 41.5,42.5 Z"/></g>
<g><path style="opacity:0.153" fill="#3f2e1e" d="M 58.5,41.5 C 58.5,41.1667 58.5,40.8333 58.5,40.5C 59.5,40.5 60.5,40.5 61.5,40.5C 62.3382,40.8417 62.6716,41.5084 62.5,42.5C 63.1098,43.391 63.4431,44.391 63.5,45.5C 64.2341,46.7079 64.5674,48.0413 64.5,49.5C 63.8333,49.8333 63.1667,50.1667 62.5,50.5C 62.1667,50.5 61.8333,50.5 61.5,50.5C 62.5884,47.5558 62.5884,44.5558 61.5,41.5C 60.5,41.5 59.5,41.5 58.5,41.5 Z"/></g>
<g><path style="opacity:0.784" fill="#8e7a68" d="M 63.5,41.5 C 64.4345,42.5676 64.7678,43.901 64.5,45.5C 64.1667,45.5 63.8333,45.5 63.5,45.5C 63.4431,44.391 63.1098,43.391 62.5,42.5C 63.1667,42.5 63.5,42.1667 63.5,41.5 Z"/></g>
<g><path style="opacity:0.194" fill="#3f2b1a" d="M 10.5,42.5 C 13.1667,42.5 15.8333,42.5 18.5,42.5C 18.5,42.8333 18.5,43.1667 18.5,43.5C 18.5,43.8333 18.5,44.1667 18.5,44.5C 17.5,44.5 16.5,44.5 15.5,44.5C 12.8333,44.5 10.1667,44.5 7.5,44.5C 7.5,44.1667 7.5,43.8333 7.5,43.5C 8.79105,43.7373 9.79105,43.404 10.5,42.5 Z"/></g>
<g><path style="opacity:0.733" fill="#5e4f3c" d="M 19.5,42.5 C 23.5,42.5 27.5,42.5 31.5,42.5C 31.5,42.8333 31.5,43.1667 31.5,43.5C 29.5853,43.2155 27.9187,43.5489 26.5,44.5C 23.8333,44.5 21.1667,44.5 18.5,44.5C 18.5,44.1667 18.5,43.8333 18.5,43.5C 19.1667,43.5 19.5,43.1667 19.5,42.5 Z"/></g>
<g><path style="opacity:0.776" fill="#88725b" d="M 26.5,44.5 C 27.9187,43.5489 29.5853,43.2155 31.5,43.5C 32.5676,44.4345 33.901,44.7678 35.5,44.5C 35.5,44.8333 35.5,45.1667 35.5,45.5C 33.901,45.2322 32.5676,45.5655 31.5,46.5C 28.1667,46.5 24.8333,46.5 21.5,46.5C 23.9686,45.6829 26.6353,45.1829 29.5,45C 28.552,44.5172 27.552,44.3505 26.5,44.5 Z"/></g>
<g><path style="opacity:1" fill="#997a58" d="M 38.5,39.5 C 38.8333,39.5 39.1667,39.5 39.5,39.5C 39.5,40.1667 39.5,40.8333 39.5,41.5C 39.8417,42.3382 40.5084,42.6716 41.5,42.5C 41.5,43.1667 41.5,43.8333 41.5,44.5C 40.596,45.209 40.2627,46.209 40.5,47.5C 40.1667,47.5 39.8333,47.5 39.5,47.5C 39.1667,47.5 38.8333,47.5 38.5,47.5C 38.5,46.5 38.5,45.5 38.5,44.5C 38.5,42.8333 38.5,41.1667 38.5,39.5 Z"/></g>
<g><path style="opacity:0.278" fill="#47382c" d="M 47.5,42.5 C 48.8333,42.5 50.1667,42.5 51.5,42.5C 51.5,42.8333 51.5,43.1667 51.5,43.5C 48.7334,43.8583 46.0667,44.525 43.5,45.5C 43.5,44.8333 43.1667,44.5 42.5,44.5C 43.209,43.596 44.209,43.2627 45.5,43.5C 46.4916,43.6716 47.1583,43.3382 47.5,42.5 Z"/></g>
<g><path style="opacity:0.29" fill="#403425" d="M 7.5,43.5 C 7.5,43.8333 7.5,44.1667 7.5,44.5C 6.16667,45.1667 6.16667,45.8333 7.5,46.5C 12.1667,46.5 16.8333,46.5 21.5,46.5C 24.8333,46.5 28.1667,46.5 31.5,46.5C 28.3752,47.4794 25.0419,47.8128 21.5,47.5C 20.5,47.5 19.5,47.5 18.5,47.5C 17.5,47.5 16.5,47.5 15.5,47.5C 14.1667,47.5 12.8333,47.5 11.5,47.5C 10.1667,47.5 8.83333,47.5 7.5,47.5C 6.41383,47.38 5.74716,46.7133 5.5,45.5C 5.74716,44.2867 6.41383,43.62 7.5,43.5 Z"/></g>
<g><path style="opacity:0.888" fill="#907d68" d="M 7.5,44.5 C 10.1667,44.5 12.8333,44.5 15.5,44.5C 12.8333,45.1667 10.1667,45.8333 7.5,46.5C 6.16667,45.8333 6.16667,45.1667 7.5,44.5 Z"/></g>
<g><path style="opacity:0.929" fill="#a28b6d" d="M 15.5,44.5 C 16.5,44.5 17.5,44.5 18.5,44.5C 21.1667,44.5 23.8333,44.5 26.5,44.5C 27.552,44.3505 28.552,44.5172 29.5,45C 26.6353,45.1829 23.9686,45.6829 21.5,46.5C 16.8333,46.5 12.1667,46.5 7.5,46.5C 10.1667,45.8333 12.8333,45.1667 15.5,44.5 Z"/></g>
<g><path style="opacity:0.929" fill="#846746" d="M 35.5,45.5 C 35.5,45.1667 35.5,44.8333 35.5,44.5C 36.5,44.5 37.5,44.5 38.5,44.5C 38.5,45.5 38.5,46.5 38.5,47.5C 38.1667,47.5 37.8333,47.5 37.5,47.5C 37.5,46.1667 36.8333,45.5 35.5,45.5 Z"/></g>
<g><path style="opacity:0.29" fill="#3c2b13" d="M 31.5,46.5 C 32.5676,45.5655 33.901,45.2322 35.5,45.5C 36.8333,45.5 37.5,46.1667 37.5,47.5C 35.6208,46.6586 33.6208,46.3253 31.5,46.5 Z"/></g>
<g><path style="opacity:0.314" fill="#422f18" d="M 41.5,44.5 C 41.8333,44.5 42.1667,44.5 42.5,44.5C 43.1667,44.5 43.5,44.8333 43.5,45.5C 42.1667,45.5 41.5,46.1667 41.5,47.5C 41.1667,47.5 40.8333,47.5 40.5,47.5C 40.2627,46.209 40.596,45.209 41.5,44.5 Z"/></g>
<g><path style="opacity:0.184" fill="#404038" d="M 69.5,48.5 C 69.6716,47.5084 69.3382,46.8417 68.5,46.5C 70.8455,43.6229 71.6789,43.9563 71,47.5C 70.6174,48.056 70.1174,48.3893 69.5,48.5 Z"/></g>
<g><path style="opacity:0.859" fill="#94795c" d="M 63.5,45.5 C 63.8333,45.5 64.1667,45.5 64.5,45.5C 64.8333,45.5 65.1667,45.5 65.5,45.5C 65.5,46.5 65.5,47.5 65.5,48.5C 65.5,48.8333 65.5,49.1667 65.5,49.5C 65.1667,49.5 64.8333,49.5 64.5,49.5C 64.5674,48.0413 64.2341,46.7079 63.5,45.5 Z"/></g>
<g><path style="opacity:0.153" fill="#2b2119" d="M 7.5,47.5 C 8.83333,47.5 10.1667,47.5 11.5,47.5C 11.5,48.1667 11.5,48.8333 11.5,49.5C 10.596,50.209 10.2627,51.209 10.5,52.5C 9.76712,50.7056 8.76712,49.0389 7.5,47.5 Z"/></g>
<g><path style="opacity:0.141" fill="#2a2013" d="M 11.5,47.5 C 12.8333,47.5 14.1667,47.5 15.5,47.5C 15.5,48.1667 15.5,48.8333 15.5,49.5C 14.1667,49.5 12.8333,49.5 11.5,49.5C 11.5,48.8333 11.5,48.1667 11.5,47.5 Z"/></g>
<g><path style="opacity:0.569" fill="#3f2915" d="M 65.5,42.5 C 66.1667,43.8333 66.8333,45.1667 67.5,46.5C 67.5,46.8333 67.5,47.1667 67.5,47.5C 66.8333,47.8333 66.1667,48.1667 65.5,48.5C 65.5,47.5 65.5,46.5 65.5,45.5C 65.5,44.5 65.5,43.5 65.5,42.5 Z"/></g>
<g><path style="opacity:0.298" fill="#393027" d="M 67.5,47.5 C 67.5,47.1667 67.5,46.8333 67.5,46.5C 67.8333,46.5 68.1667,46.5 68.5,46.5C 69.3382,46.8417 69.6716,47.5084 69.5,48.5C 68.1311,50.7323 67.1311,53.0656 66.5,55.5C 66.5,53.8333 66.5,52.1667 66.5,50.5C 66.9528,49.5416 67.6195,48.7083 68.5,48C 68.2716,47.6012 67.9382,47.4346 67.5,47.5 Z"/></g>
<g><path style="opacity:0.141" fill="#2b1c14" d="M 15.5,47.5 C 16.5,47.5 17.5,47.5 18.5,47.5C 18.8333,48.1667 19.1667,48.8333 19.5,49.5C 18.1667,49.5 16.8333,49.5 15.5,49.5C 15.5,48.8333 15.5,48.1667 15.5,47.5 Z"/></g>
<g><path style="opacity:0.055" fill="#22220e" d="M 18.5,47.5 C 19.5,47.5 20.5,47.5 21.5,47.5C 21.8333,48.1667 22.1667,48.8333 22.5,49.5C 21.5,49.5 20.5,49.5 19.5,49.5C 19.1667,48.8333 18.8333,48.1667 18.5,47.5 Z"/></g>
<g><path style="opacity:0.588" fill="#715c43" d="M 67.5,47.5 C 67.9382,47.4346 68.2716,47.6012 68.5,48C 67.6195,48.7083 66.9528,49.5416 66.5,50.5C 66.1667,50.5 65.8333,50.5 65.5,50.5C 65.5,50.1667 65.5,49.8333 65.5,49.5C 65.5,49.1667 65.5,48.8333 65.5,48.5C 66.1667,48.1667 66.8333,47.8333 67.5,47.5 Z"/></g>
<g><path style="opacity:0.81" fill="#91785f" d="M 11.5,49.5 C 12.8333,49.5 14.1667,49.5 15.5,49.5C 16.8333,49.5 18.1667,49.5 19.5,49.5C 20.5,49.5 21.5,49.5 22.5,49.5C 22.8333,49.5 23.1667,49.5 23.5,49.5C 21.8439,51.0603 19.8439,52.0603 17.5,52.5C 15.1667,52.5 12.8333,52.5 10.5,52.5C 10.2627,51.209 10.596,50.209 11.5,49.5 Z"/></g>
<g><path style="opacity:0.584" fill="#5b462c" d="M 37.5,47.5 C 37.8333,47.5 38.1667,47.5 38.5,47.5C 38.8333,47.5 39.1667,47.5 39.5,47.5C 39.5,48.8333 39.5,50.1667 39.5,51.5C 39.1667,51.5 38.8333,51.5 38.5,51.5C 37.5655,50.4324 37.2322,49.099 37.5,47.5 Z"/></g>
<g><path style="opacity:0.847" fill="#987c5e" d="M 39.5,47.5 C 39.8333,47.5 40.1667,47.5 40.5,47.5C 40.8333,47.5 41.1667,47.5 41.5,47.5C 41.5,48.5 41.5,49.5 41.5,50.5C 41.5,50.8333 41.5,51.1667 41.5,51.5C 40.8333,51.5 40.1667,51.5 39.5,51.5C 39.5,50.1667 39.5,48.8333 39.5,47.5 Z"/></g>
<g><path style="opacity:0.812" fill="#8b6f5a" d="M 64.5,49.5 C 64.8333,49.5 65.1667,49.5 65.5,49.5C 65.5,49.8333 65.5,50.1667 65.5,50.5C 65.5,51.1667 65.1667,51.5 64.5,51.5C 64.1667,51.5 63.8333,51.5 63.5,51.5C 63.1667,51.5 62.8333,51.5 62.5,51.5C 62.5,51.1667 62.5,50.8333 62.5,50.5C 63.1667,50.1667 63.8333,49.8333 64.5,49.5 Z"/></g>
<g><path style="opacity:0.651" fill="#6b5c48" d="M 23.5,49.5 C 24.8333,50.5 24.8333,51.5 23.5,52.5C 21.5,52.5 19.5,52.5 17.5,52.5C 19.8439,52.0603 21.8439,51.0603 23.5,49.5 Z"/></g>
<g><path style="opacity:0.294" fill="#34271a" d="M 41.5,47.5 C 42.9313,48.7804 43.5979,50.4471 43.5,52.5C 42.8333,51.8333 42.1667,51.1667 41.5,50.5C 41.5,49.5 41.5,48.5 41.5,47.5 Z"/></g>
<g><path style="opacity:0.502" fill="#4d3b30" d="M 61.5,50.5 C 61.8333,50.5 62.1667,50.5 62.5,50.5C 62.5,50.8333 62.5,51.1667 62.5,51.5C 61.5084,51.3284 60.8417,51.6618 60.5,52.5C 59.391,52.5569 58.391,52.8902 57.5,53.5C 56.2921,54.2341 54.9587,54.5674 53.5,54.5C 55.8485,52.659 58.5152,51.3257 61.5,50.5 Z"/></g>
<g><path style="opacity:0.2" fill="#23160a" d="M 10.5,52.5 C 12.8333,52.5 15.1667,52.5 17.5,52.5C 19.5,52.5 21.5,52.5 23.5,52.5C 21.1667,53.1667 18.8333,53.8333 16.5,54.5C 14.5,54.5 12.5,54.5 10.5,54.5C 10.5,53.8333 10.5,53.1667 10.5,52.5 Z"/></g>
<g><path style="opacity:0.859" fill="#917566" d="M 39.5,51.5 C 40.1667,51.5 40.8333,51.5 41.5,51.5C 41.5,52.1667 41.5,52.8333 41.5,53.5C 41.5,54.1667 41.5,54.8333 41.5,55.5C 40.6554,54.3285 39.9887,52.9952 39.5,51.5 Z"/></g>
<g><path style="opacity:0.863" fill="#806756" d="M 41.5,50.5 C 42.1667,51.1667 42.8333,51.8333 43.5,52.5C 43.5,53.1667 43.5,53.8333 43.5,54.5C 42.8333,54.1667 42.1667,53.8333 41.5,53.5C 41.5,52.8333 41.5,52.1667 41.5,51.5C 41.5,51.1667 41.5,50.8333 41.5,50.5 Z"/></g>
<g><path style="opacity:0.667" fill="#644f3c" d="M 62.5,51.5 C 62.8333,51.5 63.1667,51.5 63.5,51.5C 63.1667,52.1667 62.8333,52.8333 62.5,53.5C 62.1583,54.3382 61.4916,54.6716 60.5,54.5C 60.5,53.8333 60.5,53.1667 60.5,52.5C 60.8417,51.6618 61.5084,51.3284 62.5,51.5 Z"/></g>
<g><path style="opacity:0.184" fill="#3a1804" d="M 63.5,51.5 C 63.8333,51.5 64.1667,51.5 64.5,51.5C 64.5,52.8333 64.5,54.1667 64.5,55.5C 63.8333,54.8333 63.1667,54.1667 62.5,53.5C 62.8333,52.8333 63.1667,52.1667 63.5,51.5 Z"/></g>
<g><path style="opacity:0.925" fill="#765b44" d="M 78.5,38.5 C 79.1667,41.8333 79.8333,45.1667 80.5,48.5C 80.0719,51.7846 79.0719,54.7846 77.5,57.5C 77.5912,55.3023 76.9245,54.9689 75.5,56.5C 75.767,54.0347 76.4336,51.7014 77.5,49.5C 78.4816,46.0381 78.815,42.3714 78.5,38.5 Z"/></g>
<g><path style="opacity:0.8" fill="#6c5b49" d="M 60.5,52.5 C 60.5,53.1667 60.5,53.8333 60.5,54.5C 60.1583,55.3382 59.4916,55.6716 58.5,55.5C 58.1667,55.5 57.8333,55.5 57.5,55.5C 57.5,54.8333 57.5,54.1667 57.5,53.5C 58.391,52.8902 59.391,52.5569 60.5,52.5 Z"/></g>
<g><path style="opacity:0.4" fill="#3e2b1e" d="M 81.5,36.5 C 83.9422,47.2013 81.6088,56.868 74.5,65.5C 74.1667,65.5 73.8333,65.5 73.5,65.5C 73.5,64.8333 73.5,64.1667 73.5,63.5C 74.5,63.1667 75.1667,62.5 75.5,61.5C 76.6737,60.4863 77.3404,59.153 77.5,57.5C 79.0719,54.7846 80.0719,51.7846 80.5,48.5C 81.4137,45.272 81.7471,41.9387 81.5,38.5C 81.5,37.8333 81.5,37.1667 81.5,36.5 Z"/></g>
<g><path style="opacity:0.439" fill="#554434" d="M 35.5,57.5 C 35.1667,57.5 34.8333,57.5 34.5,57.5C 34.1788,55.9519 33.1788,55.2852 31.5,55.5C 30.5,55.5 29.5,55.5 28.5,55.5C 27.1667,55.5 25.8333,55.5 24.5,55.5C 25.172,54.7326 26.0053,54.0659 27,53.5C 29.7405,54.2822 32.5738,54.7822 35.5,55C 36.5981,55.7697 36.5981,56.603 35.5,57.5 Z"/></g>
<g><path style="opacity:0.278" fill="#3c2c1e" d="M 38.5,51.5 C 38.8333,51.5 39.1667,51.5 39.5,51.5C 39.9887,52.9952 40.6554,54.3285 41.5,55.5C 41.5,56.1667 41.5,56.8333 41.5,57.5C 41.5,58.1667 41.5,58.8333 41.5,59.5C 40.5,59.5 39.5,59.5 38.5,59.5C 38.1667,59.5 37.8333,59.5 37.5,59.5C 38.3984,58.8423 39.3984,58.1757 40.5,57.5C 39.2528,55.677 38.5861,53.677 38.5,51.5 Z"/></g>
<g><path style="opacity:0.949" fill="#947358" d="M 41.5,53.5 C 42.1667,53.8333 42.8333,54.1667 43.5,54.5C 43.5,54.8333 43.5,55.1667 43.5,55.5C 42.8333,56.1667 42.1667,56.8333 41.5,57.5C 41.5,56.8333 41.5,56.1667 41.5,55.5C 41.5,54.8333 41.5,54.1667 41.5,53.5 Z"/></g>
<g><path style="opacity:0.525" fill="#473b2b" d="M 10.5,54.5 C 12.5,54.5 14.5,54.5 16.5,54.5C 18.099,54.2322 19.4324,54.5655 20.5,55.5C 19.5,55.5 18.5,55.5 17.5,55.5C 6.83333,56.1667 6.83333,56.8333 17.5,57.5C 18.5,57.5 19.5,57.5 20.5,57.5C 16.6888,58.6453 12.6888,58.8119 8.5,58C 7.16023,55.8511 7.8269,54.6845 10.5,54.5 Z"/></g>
<g><path style="opacity:0.827" fill="#817469" d="M 17.5,55.5 C 18.5,55.5 19.5,55.5 20.5,55.5C 21.5063,56.3957 21.5063,57.0623 20.5,57.5C 19.5,57.5 18.5,57.5 17.5,57.5C 17.5,56.8333 17.5,56.1667 17.5,55.5 Z"/></g>
<g><path style="opacity:0.902" fill="#9e7a61" d="M 28.5,55.5 C 29.5,55.5 30.5,55.5 31.5,55.5C 31.5,56.1667 31.5,56.8333 31.5,57.5C 30.8333,57.5 30.1667,57.5 29.5,57.5C 29.1667,56.8333 28.8333,56.1667 28.5,55.5 Z"/></g>
<g><path style="opacity:0.886" fill="#5e4e3a" d="M 53.5,54.5 C 53.5,55.1667 53.5,55.8333 53.5,56.5C 51.5,56.5 49.5,56.5 47.5,56.5C 49.2143,55.2616 51.2143,54.595 53.5,54.5 Z"/></g>
<g><path style="opacity:0.871" fill="#846e5a" d="M 57.5,53.5 C 57.5,54.1667 57.5,54.8333 57.5,55.5C 55.9382,55.7329 54.6049,56.3995 53.5,57.5C 53.5,57.1667 53.5,56.8333 53.5,56.5C 53.5,55.8333 53.5,55.1667 53.5,54.5C 54.9587,54.5674 56.2921,54.2341 57.5,53.5 Z"/></g>
<g><path style="opacity:0.845" fill="#9a8165" d="M 17.5,55.5 C 17.5,56.1667 17.5,56.8333 17.5,57.5C 6.83333,56.8333 6.83333,56.1667 17.5,55.5 Z"/></g>
<g><path style="opacity:0.788" fill="#907a61" d="M 24.5,55.5 C 25.8333,55.5 27.1667,55.5 28.5,55.5C 28.8333,56.1667 29.1667,56.8333 29.5,57.5C 27.2188,57.9227 25.5521,57.256 24.5,55.5 Z"/></g>
<g><path style="opacity:0.757" fill="#967a68" d="M 31.5,55.5 C 33.1788,55.2852 34.1788,55.9519 34.5,57.5C 33.5,57.5 32.5,57.5 31.5,57.5C 31.5,56.8333 31.5,56.1667 31.5,55.5 Z"/></g>
<g><path style="opacity:0.29" fill="#492c18" d="M 43.5,52.5 C 44.393,54.297 45.7263,55.6304 47.5,56.5C 47.5,56.8333 47.5,57.1667 47.5,57.5C 46.5,57.5 45.5,57.5 44.5,57.5C 44.6716,56.5084 44.3382,55.8417 43.5,55.5C 43.5,55.1667 43.5,54.8333 43.5,54.5C 43.5,53.8333 43.5,53.1667 43.5,52.5 Z"/></g>
<g><path style="opacity:0.773" fill="#7f6a50" d="M 47.5,57.5 C 47.5,57.1667 47.5,56.8333 47.5,56.5C 49.5,56.5 51.5,56.5 53.5,56.5C 53.5,56.8333 53.5,57.1667 53.5,57.5C 52.8333,57.5 52.5,57.8333 52.5,58.5C 51.8333,58.5 51.1667,58.5 50.5,58.5C 49.791,57.596 48.791,57.2627 47.5,57.5 Z"/></g>
<g><path style="opacity:0.161" fill="#362316" d="M 57.5,55.5 C 57.8333,55.5 58.1667,55.5 58.5,55.5C 57.089,57.539 55.089,58.539 52.5,58.5C 52.5,57.8333 52.8333,57.5 53.5,57.5C 54.6049,56.3995 55.9382,55.7329 57.5,55.5 Z"/></g>
<g><path style="opacity:0.253" fill="#2f2317" d="M 24.5,55.5 C 25.5521,57.256 27.2188,57.9227 29.5,57.5C 30.1667,57.5 30.8333,57.5 31.5,57.5C 32.5,57.5 33.5,57.5 34.5,57.5C 34.8333,57.5 35.1667,57.5 35.5,57.5C 31.7016,58.4834 27.7016,58.8168 23.5,58.5C 23.2627,57.209 23.596,56.209 24.5,55.5 Z"/></g>
<g><path style="opacity:1" fill="#8d6746" d="M 43.5,55.5 C 44.3382,55.8417 44.6716,56.5084 44.5,57.5C 43.5,58.1667 42.5,58.8333 41.5,59.5C 41.5,58.8333 41.5,58.1667 41.5,57.5C 42.1667,56.8333 42.8333,56.1667 43.5,55.5 Z"/></g>
<g><path style="opacity:0.886" fill="#8d6e53" d="M 44.5,57.5 C 45.5,57.5 46.5,57.5 47.5,57.5C 48.791,57.2627 49.791,57.596 50.5,58.5C 49.609,59.1098 48.609,59.4431 47.5,59.5C 46.5,58.8333 45.5,58.1667 44.5,57.5 Z"/></g>
<g><path style="opacity:1" fill="#806649" d="M 77.5,57.5 C 77.3404,59.153 76.6737,60.4863 75.5,61.5C 75.5,60.8333 75.5,60.1667 75.5,59.5C 75.5,58.5 75.5,57.5 75.5,56.5C 76.9245,54.9689 77.5912,55.3023 77.5,57.5 Z"/></g>
<g><path style="opacity:1" fill="#a0734f" d="M 44.5,57.5 C 45.5,58.1667 46.5,58.8333 47.5,59.5C 47.1667,59.5 46.8333,59.5 46.5,59.5C 44.7839,59.6287 43.1172,59.962 41.5,60.5C 41.5,60.1667 41.5,59.8333 41.5,59.5C 42.5,58.8333 43.5,58.1667 44.5,57.5 Z"/></g>
<g><path style="opacity:0.847" fill="#61482d" d="M 75.5,56.5 C 75.5,57.5 75.5,58.5 75.5,59.5C 74.5,60.1667 73.5,60.8333 72.5,61.5C 73.1103,59.5659 74.1103,57.8993 75.5,56.5 Z"/></g>
<g><path style="opacity:0.369" fill="#443525" d="M 37.5,59.5 C 37.8333,59.5 38.1667,59.5 38.5,59.5C 38.5,59.8333 38.5,60.1667 38.5,60.5C 37.1667,60.5 35.8333,60.5 34.5,60.5C 32.9731,60.427 31.9731,61.0937 31.5,62.5C 31.5,62.8333 31.5,63.1667 31.5,63.5C 30.2089,62.4583 30.2089,61.2917 31.5,60C 33.4727,59.5045 35.4727,59.3379 37.5,59.5 Z"/></g>
<g><path style="opacity:0.884" fill="#8c6e5a" d="M 38.5,60.5 C 38.5,60.1667 38.5,59.8333 38.5,59.5C 39.5,59.5 40.5,59.5 41.5,59.5C 41.5,59.8333 41.5,60.1667 41.5,60.5C 41.5,60.8333 41.5,61.1667 41.5,61.5C 40.8333,61.5 40.1667,61.5 39.5,61.5C 39.5,60.8333 39.1667,60.5 38.5,60.5 Z"/></g>
<g><path style="opacity:1" fill="#966c43" d="M 46.5,59.5 C 46.5,60.1667 46.5,60.8333 46.5,61.5C 45.8333,61.5 45.1667,61.5 44.5,61.5C 43.5,61.5 42.5,61.5 41.5,61.5C 41.5,61.1667 41.5,60.8333 41.5,60.5C 43.1172,59.962 44.7839,59.6287 46.5,59.5 Z"/></g>
<g><path style="opacity:0.796" fill="#867354" d="M 18.5,60.5 C 20.7812,60.0773 22.4479,60.744 23.5,62.5C 21.2188,62.9227 19.5521,62.256 18.5,60.5 Z"/></g>
<g><path style="opacity:1" fill="#94755d" d="M 34.5,60.5 C 35.8333,60.5 37.1667,60.5 38.5,60.5C 39.1667,60.5 39.5,60.8333 39.5,61.5C 37.9582,62.3007 36.2915,62.634 34.5,62.5C 34.5,61.8333 34.5,61.1667 34.5,60.5 Z"/></g>
<g><path style="opacity:0.259" fill="#361f0f" d="M 50.5,58.5 C 51.1667,58.5 51.8333,58.5 52.5,58.5C 51.1667,59.5 49.8333,60.5 48.5,61.5C 47.6618,61.1583 47.3284,60.4916 47.5,59.5C 48.609,59.4431 49.609,59.1098 50.5,58.5 Z"/></g>
<g><path style="opacity:0.471" fill="#53493f" d="M 65.5,50.5 C 65.8333,50.5 66.1667,50.5 66.5,50.5C 66.5,52.1667 66.5,53.8333 66.5,55.5C 66.5,56.5 66.5,57.5 66.5,58.5C 65.5386,60.2646 65.2053,62.2646 65.5,64.5C 64.1201,64.0377 63.4534,63.0377 63.5,61.5C 64.1556,59.5466 64.4889,57.5466 64.5,55.5C 64.5,54.1667 64.5,52.8333 64.5,51.5C 65.1667,51.5 65.5,51.1667 65.5,50.5 Z"/></g>
<g><path style="opacity:0.941" fill="#85694f" d="M 75.5,59.5 C 75.5,60.1667 75.5,60.8333 75.5,61.5C 75.1667,62.5 74.5,63.1667 73.5,63.5C 73.1667,63.5 72.8333,63.5 72.5,63.5C 72.5,62.8333 72.5,62.1667 72.5,61.5C 73.5,60.8333 74.5,60.1667 75.5,59.5 Z"/></g>
<g><path style="opacity:0.671" fill="#625044" d="M 18.5,60.5 C 20.9664,59.3659 23.633,59.1993 26.5,60C 27.7996,61.5788 27.4663,62.7455 25.5,63.5C 25.1583,62.6618 24.4916,62.3284 23.5,62.5C 22.4479,60.744 20.7812,60.0773 18.5,60.5 Z"/></g>
<g><path style="opacity:0.835" fill="#87735c" d="M 34.5,60.5 C 34.5,61.1667 34.5,61.8333 34.5,62.5C 33.5,62.5 32.5,62.5 31.5,62.5C 31.9731,61.0937 32.9731,60.427 34.5,60.5 Z"/></g>
<g><path style="opacity:0.761" fill="#735a3c" d="M 46.5,59.5 C 46.8333,59.5 47.1667,59.5 47.5,59.5C 47.3284,60.4916 47.6618,61.1583 48.5,61.5C 48.5,62.1667 48.5,62.8333 48.5,63.5C 47.5,63.1667 46.8333,62.5 46.5,61.5C 46.5,60.8333 46.5,60.1667 46.5,59.5 Z"/></g>
<g><path style="opacity:0.251" fill="#3d3226" d="M 66.5,58.5 C 67.4845,60.5979 67.1511,62.5979 65.5,64.5C 65.2053,62.2646 65.5386,60.2646 66.5,58.5 Z"/></g>
<g><path style="opacity:0.537" fill="#423623" d="M 18.5,60.5 C 19.5521,62.256 21.2188,62.9227 23.5,62.5C 24.4916,62.3284 25.1583,62.6618 25.5,63.5C 23.7116,64.6225 21.7116,64.7891 19.5,64C 17.5049,63.0764 17.1716,61.9097 18.5,60.5 Z"/></g>
<g><path style="opacity:0.498" fill="#433023" d="M 39.5,61.5 C 40.1667,61.5 40.8333,61.5 41.5,61.5C 42.5,61.5 43.5,61.5 44.5,61.5C 44.5,61.8333 44.5,62.1667 44.5,62.5C 44.1667,62.5 43.8333,62.5 43.5,62.5C 39.439,64.191 35.439,64.5244 31.5,63.5C 31.5,63.1667 31.5,62.8333 31.5,62.5C 32.5,62.5 33.5,62.5 34.5,62.5C 36.2915,62.634 37.9582,62.3007 39.5,61.5 Z"/></g>
<g><path style="opacity:0.922" fill="#896c4e" d="M 44.5,61.5 C 45.1667,61.5 45.8333,61.5 46.5,61.5C 46.8333,62.5 47.5,63.1667 48.5,63.5C 48.8333,64.1667 49.1667,64.8333 49.5,65.5C 48.8333,65.5 48.1667,65.5 47.5,65.5C 47.1667,65.5 46.8333,65.5 46.5,65.5C 45.8333,64.5 45.1667,63.5 44.5,62.5C 44.5,62.1667 44.5,61.8333 44.5,61.5 Z"/></g>
<g><path style="opacity:0.478" fill="#402b18" d="M 43.5,62.5 C 43.8333,62.5 44.1667,62.5 44.5,62.5C 45.1667,63.5 45.8333,64.5 46.5,65.5C 46.1667,65.5 45.8333,65.5 45.5,65.5C 44.0937,65.0269 43.427,64.0269 43.5,62.5 Z"/></g>
<g><path style="opacity:0.639" fill="#43331d" d="M 48.5,61.5 C 50.2181,63.2228 51.5514,65.2228 52.5,67.5C 51.8333,67.1667 51.1667,66.8333 50.5,66.5C 50.5,65.8333 50.1667,65.5 49.5,65.5C 49.1667,64.8333 48.8333,64.1667 48.5,63.5C 48.5,62.8333 48.5,62.1667 48.5,61.5 Z"/></g>
<g><path style="opacity:0.675" fill="#52402c" d="M 72.5,61.5 C 72.5,62.1667 72.5,62.8333 72.5,63.5C 71.5,63.8333 70.8333,64.5 70.5,65.5C 69.8333,65.5 69.5,65.8333 69.5,66.5C 69.1667,66.5 68.8333,66.5 68.5,66.5C 68.1667,66.5 67.8333,66.5 67.5,66.5C 68.8333,64.5 70.5,62.8333 72.5,61.5 Z"/></g>
<g><path style="opacity:0.988" fill="#7b6146" d="M 72.5,63.5 C 72.8333,63.5 73.1667,63.5 73.5,63.5C 73.5,64.1667 73.5,64.8333 73.5,65.5C 72.8333,65.8333 72.1667,66.1667 71.5,66.5C 71.5,65.8333 71.1667,65.5 70.5,65.5C 70.8333,64.5 71.5,63.8333 72.5,63.5 Z"/></g>
<g><path style="opacity:0.486" fill="#59432f" d="M 38.5,66.5 C 38.5,66.8333 38.5,67.1667 38.5,67.5C 34.5,67.5 30.5,67.5 26.5,67.5C 23.6146,67.1936 20.9479,67.5269 18.5,68.5C 17.8333,68.5 17.5,68.1667 17.5,67.5C 24.3134,66.5088 31.3134,66.1755 38.5,66.5 Z"/></g>
<g><path style="opacity:0.322" fill="#3b2e28" d="M 45.5,65.5 C 45.8333,65.5 46.1667,65.5 46.5,65.5C 46.8333,65.5 47.1667,65.5 47.5,65.5C 47.427,67.0269 48.0937,68.0269 49.5,68.5C 49.5,68.8333 49.5,69.1667 49.5,69.5C 49.5,69.8333 49.5,70.1667 49.5,70.5C 47.4131,69.4154 46.0798,67.7488 45.5,65.5 Z"/></g>
<g><path style="opacity:0.941" fill="#7d654e" d="M 47.5,65.5 C 48.1667,65.5 48.8333,65.5 49.5,65.5C 50.1667,65.5 50.5,65.8333 50.5,66.5C 49.6618,66.8417 49.3284,67.5084 49.5,68.5C 48.0937,68.0269 47.427,67.0269 47.5,65.5 Z"/></g>
<g><path style="opacity:1" fill="#7d624c" d="M 70.5,65.5 C 71.1667,65.5 71.5,65.8333 71.5,66.5C 71.1667,67.1667 70.8333,67.8333 70.5,68.5C 70.1667,68.5 69.8333,68.5 69.5,68.5C 69.5,67.8333 69.5,67.1667 69.5,66.5C 69.5,65.8333 69.8333,65.5 70.5,65.5 Z"/></g>
<g><path style="opacity:0.157" fill="#322615" d="M 73.5,65.5 C 73.8333,65.5 74.1667,65.5 74.5,65.5C 73.5,67.1667 72.1667,68.5 70.5,69.5C 70.5,69.1667 70.5,68.8333 70.5,68.5C 70.8333,67.8333 71.1667,67.1667 71.5,66.5C 72.1667,66.1667 72.8333,65.8333 73.5,65.5 Z"/></g>
<g><path style="opacity:1" fill="#71563f" d="M 50.5,66.5 C 51.1667,66.8333 51.8333,67.1667 52.5,67.5C 53.5,67.8333 54.1667,68.5 54.5,69.5C 52.965,68.6457 51.6316,68.6457 50.5,69.5C 50.1667,69.5 49.8333,69.5 49.5,69.5C 49.5,69.1667 49.5,68.8333 49.5,68.5C 49.3284,67.5084 49.6618,66.8417 50.5,66.5 Z"/></g>
<g><path style="opacity:0.361" fill="#3a2f23" d="M 17.5,67.5 C 17.5,68.1667 17.8333,68.5 18.5,68.5C 19.9187,69.4511 21.5853,69.7845 23.5,69.5C 24.4916,69.3284 25.1583,69.6618 25.5,70.5C 22.8127,70.6641 20.146,70.4974 17.5,70C 16.2264,69.0228 16.2264,68.1894 17.5,67.5 Z"/></g>
<g><path style="opacity:0.808" fill="#806b51" d="M 26.5,67.5 C 26.5,67.8333 26.5,68.1667 26.5,68.5C 25.209,68.2627 24.209,68.596 23.5,69.5C 21.5853,69.7845 19.9187,69.4511 18.5,68.5C 20.9479,67.5269 23.6146,67.1936 26.5,67.5 Z"/></g>
<g><path style="opacity:0.953" fill="#7d5f43" d="M 23.5,69.5 C 24.209,68.596 25.209,68.2627 26.5,68.5C 27.1667,69.1667 27.8333,69.8333 28.5,70.5C 27.5,70.5 26.5,70.5 25.5,70.5C 25.1583,69.6618 24.4916,69.3284 23.5,69.5 Z"/></g>
<g><path style="opacity:1" fill="#98724e" d="M 26.5,67.5 C 30.5,67.5 34.5,67.5 38.5,67.5C 38.8333,67.5 39.1667,67.5 39.5,67.5C 39.5,68.1667 39.1667,68.5 38.5,68.5C 35.4816,68.3354 32.4816,68.502 29.5,69C 30.056,69.3826 30.3893,69.8826 30.5,70.5C 29.8333,70.5 29.1667,70.5 28.5,70.5C 27.8333,69.8333 27.1667,69.1667 26.5,68.5C 26.5,68.1667 26.5,67.8333 26.5,67.5 Z"/></g>
<g><path style="opacity:0.826" fill="#835d3c" d="M 38.5,68.5 C 38.5,68.8333 38.5,69.1667 38.5,69.5C 37.8333,69.5 37.1667,69.5 36.5,69.5C 34.5853,69.2155 32.9187,69.5489 31.5,70.5C 31.1667,70.5 30.8333,70.5 30.5,70.5C 30.3893,69.8826 30.056,69.3826 29.5,69C 32.4816,68.502 35.4816,68.3354 38.5,68.5 Z"/></g>
<g><path style="opacity:0.698" fill="#746350" d="M 39.5,67.5 C 40.3764,67.3691 41.0431,67.7025 41.5,68.5C 40.675,69.3857 39.675,69.719 38.5,69.5C 38.5,69.1667 38.5,68.8333 38.5,68.5C 39.1667,68.5 39.5,68.1667 39.5,67.5 Z"/></g>
<g><path style="opacity:0.235" fill="#3a3229" d="M 38.5,67.5 C 38.5,67.1667 38.5,66.8333 38.5,66.5C 39.8333,66.5 41.1667,66.5 42.5,66.5C 42.5,67.8333 42.5,69.1667 42.5,70.5C 40.5,70.5 38.5,70.5 36.5,70.5C 36.5,70.1667 36.5,69.8333 36.5,69.5C 37.1667,69.5 37.8333,69.5 38.5,69.5C 39.675,69.719 40.675,69.3857 41.5,68.5C 41.0431,67.7025 40.3764,67.3691 39.5,67.5C 39.1667,67.5 38.8333,67.5 38.5,67.5 Z"/></g>
<g><path style="opacity:1" fill="#876447" d="M 54.5,69.5 C 54.5,70.1667 54.5,70.8333 54.5,71.5C 53.8333,71.5 53.5,71.8333 53.5,72.5C 53.1667,72.5 52.8333,72.5 52.5,72.5C 51.8333,71.5 51.1667,70.5 50.5,69.5C 51.6316,68.6457 52.965,68.6457 54.5,69.5 Z"/></g>
<g><path style="opacity:0.831" fill="#5c412a" d="M 67.5,66.5 C 67.8333,66.5 68.1667,66.5 68.5,66.5C 67.6935,67.7281 66.6935,68.7281 65.5,69.5C 64.8333,69.5 64.1667,69.5 63.5,69.5C 64.4363,68.0256 65.7697,67.0256 67.5,66.5 Z"/></g>
<g><path style="opacity:1" fill="#83664a" d="M 68.5,66.5 C 68.8333,66.5 69.1667,66.5 69.5,66.5C 69.5,67.1667 69.5,67.8333 69.5,68.5C 68.5,69.1667 67.5,69.8333 66.5,70.5C 65.8333,70.5 65.5,70.1667 65.5,69.5C 66.6935,68.7281 67.6935,67.7281 68.5,66.5 Z"/></g>
<g><path style="opacity:0.212" fill="#372519" d="M 69.5,68.5 C 69.8333,68.5 70.1667,68.5 70.5,68.5C 70.5,68.8333 70.5,69.1667 70.5,69.5C 69.205,70.4884 67.8717,71.4884 66.5,72.5C 66.5,72.1667 66.5,71.8333 66.5,71.5C 66.5,71.1667 66.5,70.8333 66.5,70.5C 67.5,69.8333 68.5,69.1667 69.5,68.5 Z"/></g>
<g><path style="opacity:1" fill="#86674d" d="M 28.5,70.5 C 29.1667,70.5 29.8333,70.5 30.5,70.5C 30.8333,70.5 31.1667,70.5 31.5,70.5C 32.1667,70.5 32.5,70.8333 32.5,71.5C 31.8333,71.5 31.5,71.8333 31.5,72.5C 29.9731,72.573 28.9731,71.9063 28.5,70.5 Z"/></g>
<g><path style="opacity:0.659" fill="#553820" d="M 31.5,70.5 C 32.9187,69.5489 34.5853,69.2155 36.5,69.5C 36.5,69.8333 36.5,70.1667 36.5,70.5C 35.5084,70.3284 34.8417,70.6618 34.5,71.5C 33.8333,71.5 33.1667,71.5 32.5,71.5C 32.5,70.8333 32.1667,70.5 31.5,70.5 Z"/></g>
<g><path style="opacity:0.702" fill="#4e331b" d="M 49.5,69.5 C 49.8333,69.5 50.1667,69.5 50.5,69.5C 51.1667,70.5 51.8333,71.5 52.5,72.5C 52.5,73.1667 52.1667,73.5 51.5,73.5C 50.8333,72.5 50.1667,71.5 49.5,70.5C 49.5,70.1667 49.5,69.8333 49.5,69.5 Z"/></g>
<g><path style="opacity:0.816" fill="#543c29" d="M 63.5,69.5 C 63.1667,70.5 62.5,71.1667 61.5,71.5C 60.8333,71.5 60.1667,71.5 59.5,71.5C 60.5137,70.3263 61.847,69.6596 63.5,69.5 Z"/></g>
<g><path style="opacity:0.455" fill="#412d1d" d="M 25.5,70.5 C 26.5,70.5 27.5,70.5 28.5,70.5C 28.9731,71.9063 29.9731,72.573 31.5,72.5C 31.8417,73.3382 32.5084,73.6716 33.5,73.5C 33.8333,74.1667 34.1667,74.8333 34.5,75.5C 31.0078,74.5903 28.0078,72.9236 25.5,70.5 Z"/></g>
<g><path style="opacity:0.991" fill="#8a6746" d="M 54.5,71.5 C 55.1667,71.8333 55.8333,72.1667 56.5,72.5C 56.5,73.1667 56.5,73.8333 56.5,74.5C 55.5,74.5 54.5,74.5 53.5,74.5C 53.5,73.8333 53.5,73.1667 53.5,72.5C 53.5,71.8333 53.8333,71.5 54.5,71.5 Z"/></g>
<g><path style="opacity:0.514" fill="#50331a" d="M 54.5,69.5 C 55.8195,70.9418 57.4862,71.6085 59.5,71.5C 58.791,72.404 57.791,72.7373 56.5,72.5C 55.8333,72.1667 55.1667,71.8333 54.5,71.5C 54.5,70.8333 54.5,70.1667 54.5,69.5 Z"/></g>
<g><path style="opacity:1" fill="#856146" d="M 63.5,69.5 C 64.1667,69.5 64.8333,69.5 65.5,69.5C 65.5,70.1667 65.8333,70.5 66.5,70.5C 66.5,70.8333 66.5,71.1667 66.5,71.5C 65.1667,71.8333 63.8333,72.1667 62.5,72.5C 61.8333,72.5 61.5,72.1667 61.5,71.5C 62.5,71.1667 63.1667,70.5 63.5,69.5 Z"/></g>
<g><path style="opacity:0.871" fill="#7f6b4f" d="M 32.5,71.5 C 33.1667,71.5 33.8333,71.5 34.5,71.5C 34.8333,72.1667 35.1667,72.8333 35.5,73.5C 34.8333,73.5 34.1667,73.5 33.5,73.5C 32.5084,73.6716 31.8417,73.3382 31.5,72.5C 31.5,71.8333 31.8333,71.5 32.5,71.5 Z"/></g>
<g><path style="opacity:0.859" fill="#514333" d="M 34.5,71.5 C 36.7857,71.595 38.7857,72.2616 40.5,73.5C 38.8333,73.5 37.1667,73.5 35.5,73.5C 35.1667,72.8333 34.8333,72.1667 34.5,71.5 Z"/></g>
<g><path style="opacity:1" fill="#835e44" d="M 59.5,71.5 C 60.1667,71.5 60.8333,71.5 61.5,71.5C 61.5,72.1667 61.8333,72.5 62.5,72.5C 62.5,72.8333 62.5,73.1667 62.5,73.5C 60.5648,74.1495 58.5648,74.4828 56.5,74.5C 56.5,73.8333 56.5,73.1667 56.5,72.5C 57.791,72.7373 58.791,72.404 59.5,71.5 Z"/></g>
<g><path style="opacity:0.247" fill="#382713" d="M 66.5,71.5 C 66.5,71.8333 66.5,72.1667 66.5,72.5C 65.7095,73.4013 64.7095,74.0679 63.5,74.5C 63.5,73.8333 63.1667,73.5 62.5,73.5C 62.5,73.1667 62.5,72.8333 62.5,72.5C 63.8333,72.1667 65.1667,71.8333 66.5,71.5 Z"/></g>
<g><path style="opacity:0.773" fill="#816041" d="M 33.5,73.5 C 34.1667,73.5 34.8333,73.5 35.5,73.5C 37.1667,73.5 38.8333,73.5 40.5,73.5C 42.2646,74.4614 44.2646,74.7947 46.5,74.5C 44.7354,75.4614 42.7354,75.7947 40.5,75.5C 38.5,75.5 36.5,75.5 34.5,75.5C 34.1667,74.8333 33.8333,74.1667 33.5,73.5 Z"/></g>
<g><path style="opacity:0.482" fill="#5c3f26" d="M 52.5,72.5 C 52.8333,72.5 53.1667,72.5 53.5,72.5C 53.5,73.1667 53.5,73.8333 53.5,74.5C 51.1667,74.5 48.8333,74.5 46.5,74.5C 44.2646,74.7947 42.2646,74.4614 40.5,73.5C 44.1667,73.5 47.8333,73.5 51.5,73.5C 52.1667,73.5 52.5,73.1667 52.5,72.5 Z"/></g>
<g><path style="opacity:0.196" fill="#452d1d" d="M 62.5,73.5 C 63.1667,73.5 63.5,73.8333 63.5,74.5C 62.1667,74.8333 60.8333,75.1667 59.5,75.5C 58.5,75.5 57.5,75.5 56.5,75.5C 56.5,75.1667 56.5,74.8333 56.5,74.5C 58.5648,74.4828 60.5648,74.1495 62.5,73.5 Z"/></g>
<g><path style="opacity:0.929" fill="#806548" d="M 46.5,74.5 C 48.8333,74.5 51.1667,74.5 53.5,74.5C 54.5,74.5 55.5,74.5 56.5,74.5C 56.5,74.8333 56.5,75.1667 56.5,75.5C 55.8333,75.5 55.1667,75.5 54.5,75.5C 51.2139,76.2071 47.8806,76.5405 44.5,76.5C 42.901,76.7678 41.5676,76.4345 40.5,75.5C 42.7354,75.7947 44.7354,75.4614 46.5,74.5 Z"/></g>
<g><path style="opacity:0.416" fill="#3c281e" d="M 54.5,75.5 C 55.1667,75.5 55.8333,75.5 56.5,75.5C 57.5,75.5 58.5,75.5 59.5,75.5C 58.0697,76.5375 56.403,77.2041 54.5,77.5C 54.5,76.8333 54.5,76.1667 54.5,75.5 Z"/></g>
<g><path style="opacity:0.525" fill="#3a271b" d="M 34.5,75.5 C 36.5,75.5 38.5,75.5 40.5,75.5C 41.5676,76.4345 42.901,76.7678 44.5,76.5C 46.2646,77.4614 48.2646,77.7947 50.5,77.5C 44.981,78.8004 39.6477,78.1338 34.5,75.5 Z"/></g>
<g><path style="opacity:0.545" fill="#4b3622" d="M 54.5,75.5 C 54.5,76.1667 54.5,76.8333 54.5,77.5C 53.1667,77.5 51.8333,77.5 50.5,77.5C 48.2646,77.7947 46.2646,77.4614 44.5,76.5C 47.8806,76.5405 51.2139,76.2071 54.5,75.5 Z"/></g>
</svg>
